<svg xmlns="http://www.w3.org/2000/svg" width="26" height="26" viewBox="0 0 26 26" fill="none">
  <g clip-path="url(#clip0_339_4436)">
    <path d="M1.62493 1.76867C-0.418236 3.89092 -6.89626e-05 6.14533 -6.89626e-05 12.9942C-6.89626e-05 18.6817 -0.992402 24.3832 4.2011 25.7255C5.82285 26.1426 20.1922 26.1426 21.8118 25.7233C23.9741 25.1654 25.7334 23.4115 25.9739 20.3532C26.0075 19.9264 26.0075 6.0695 25.9728 5.634C25.7172 2.37642 23.7119 0.498999 21.0697 0.118749C20.4641 0.030999 20.3428 0.00499899 17.2358 -0.000417672C6.21501 0.00499899 3.79918 -0.485751 1.62493 1.76867Z" fill="url(#paint0_linear_339_4436)"/>
    <path d="M12.9978 3.40087C9.06421 3.40087 5.32888 3.05095 3.90213 6.71262C3.31279 8.22495 3.39838 10.189 3.39838 13.0014C3.39838 15.4692 3.31929 17.7886 3.90213 19.289C5.32563 22.9529 9.09129 22.6019 12.9956 22.6019C16.7624 22.6019 20.6461 22.994 22.0902 19.289C22.6806 17.7615 22.594 15.8267 22.594 13.0014C22.594 9.25087 22.8009 6.82962 20.982 5.01178C19.1403 3.17012 16.6497 3.40087 12.9935 3.40087H12.9978ZM12.1376 5.13095C20.3428 5.11795 21.3871 4.20578 20.8108 16.8775C20.606 21.3593 17.1935 20.8675 12.9989 20.8675C5.35054 20.8675 5.13063 20.6486 5.13063 12.997C5.13063 5.25662 5.73729 5.13528 12.1376 5.12878V5.13095ZM18.122 6.72453C17.486 6.72453 16.9704 7.2402 16.9704 7.87612C16.9704 8.51203 17.486 9.0277 18.122 9.0277C18.7579 9.0277 19.2735 8.51203 19.2735 7.87612C19.2735 7.2402 18.7579 6.72453 18.122 6.72453ZM12.9978 8.07112C10.2754 8.07112 8.06863 10.279 8.06863 13.0014C8.06863 15.7238 10.2754 17.9305 12.9978 17.9305C15.7202 17.9305 17.9259 15.7238 17.9259 13.0014C17.9259 10.279 15.7202 8.07112 12.9978 8.07112ZM12.9978 9.8012C17.2282 9.8012 17.2336 16.2015 12.9978 16.2015C8.76846 16.2015 8.76196 9.8012 12.9978 9.8012Z" fill="white"/>
  </g>
  <defs>
    <linearGradient id="paint0_linear_339_4436" x1="1.67479" y1="24.3389" x2="25.839" y2="3.42506" gradientUnits="userSpaceOnUse">
      <stop stop-color="#FFDD55"/>
      <stop offset="0.5" stop-color="#FF543E"/>
      <stop offset="1" stop-color="#C837AB"/>
    </linearGradient>
    <clipPath id="clip0_339_4436">
      <rect width="26" height="26" fill="white"/>
    </clipPath>
  </defs>
</svg>