<svg xmlns="http://www.w3.org/2000/svg" width="26" height="26" viewBox="0 0 26 26" fill="none">
  <g clip-path="url(#clip0_339_4451)">
    <path d="M22.4545 0H3.54545C1.58735 0 0 1.58735 0 3.54545V22.4545C0 24.4126 1.58735 26 3.54545 26H22.4545C24.4126 26 26 24.4126 26 22.4545V3.54545C26 1.58735 24.4126 0 22.4545 0Z" fill="#0077B5"/>
    <path d="M9.3659 7.09091C9.3659 7.52917 9.23594 7.9576 8.99245 8.322C8.74897 8.68641 8.40289 8.97043 7.99798 9.13814C7.59308 9.30586 7.14753 9.34974 6.71769 9.26424C6.28785 9.17874 5.89301 8.96769 5.58311 8.65779C5.27321 8.34789 5.06216 7.95306 4.97666 7.52321C4.89116 7.09337 4.93504 6.64782 5.10276 6.24292C5.27048 5.83801 5.55449 5.49194 5.9189 5.24845C6.2833 5.00496 6.71173 4.875 7.14999 4.875C7.73769 4.875 8.30131 5.10846 8.71688 5.52402C9.13244 5.93959 9.3659 6.50321 9.3659 7.09091Z" fill="white"/>
    <path d="M8.8636 10.7839V20.5738C8.86399 20.646 8.8501 20.7176 8.82274 20.7844C8.79537 20.8513 8.75506 20.9121 8.70413 20.9633C8.6532 21.0145 8.59264 21.0551 8.52596 21.0828C8.45927 21.1106 8.38776 21.1248 8.31554 21.1248H5.97997C5.90775 21.125 5.8362 21.1109 5.76944 21.0834C5.70267 21.0558 5.64201 21.0154 5.59095 20.9643C5.53988 20.9132 5.49941 20.8526 5.47186 20.7858C5.44431 20.7191 5.43023 20.6475 5.43042 20.5753V10.7839C5.43042 10.6382 5.48832 10.4984 5.59138 10.3953C5.69444 10.2923 5.83422 10.2344 5.97997 10.2344H8.31554C8.46103 10.2348 8.60043 10.2928 8.70317 10.3959C8.80591 10.4989 8.8636 10.6384 8.8636 10.7839Z" fill="white"/>
    <path d="M21.0719 15.8809V20.62C21.0721 20.6864 21.0591 20.7522 21.0338 20.8136C21.0085 20.875 20.9713 20.9307 20.9243 20.9777C20.8774 21.0246 20.8216 21.0618 20.7602 21.0872C20.6988 21.1125 20.6331 21.1254 20.5667 21.1252H18.0553C17.9889 21.1254 17.9231 21.1125 17.8617 21.0872C17.8003 21.0618 17.7446 21.0246 17.6976 20.9777C17.6507 20.9307 17.6134 20.875 17.5881 20.8136C17.5628 20.7522 17.5499 20.6864 17.5501 20.62V16.0272C17.5501 15.3417 17.751 13.0253 15.7581 13.0253C14.2144 13.0253 13.8997 14.6104 13.8377 15.3225V20.62C13.8377 20.7527 13.7855 20.8801 13.6923 20.9747C13.5992 21.0692 13.4725 21.1233 13.3398 21.1252H10.9142C10.8479 21.1252 10.7822 21.1121 10.721 21.0867C10.6598 21.0613 10.6042 21.0241 10.5574 20.9772C10.5106 20.9302 10.4736 20.8745 10.4483 20.8132C10.4231 20.7519 10.4102 20.6863 10.4104 20.62V10.7415C10.4102 10.6752 10.4231 10.6095 10.4483 10.5482C10.4736 10.487 10.5106 10.4312 10.5574 10.3843C10.6042 10.3374 10.6598 10.3001 10.721 10.2747C10.7822 10.2493 10.8479 10.2362 10.9142 10.2362H13.3398C13.4738 10.2362 13.6023 10.2895 13.6971 10.3842C13.7918 10.479 13.8451 10.6075 13.8451 10.7415V11.5953C14.4182 10.7356 15.2677 10.0723 17.0803 10.0723C21.0955 10.0723 21.0719 13.8216 21.0719 15.8809Z" fill="white"/>
  </g>
  <defs>
    <clipPath id="clip0_339_4451">
      <rect width="26" height="26" fill="white"/>
    </clipPath>
  </defs>
</svg>