<svg width="505" height="445" viewBox="0 0 505 445" fill="none" xmlns="http://www.w3.org/2000/svg">
<g filter="url(#filter0_d_1321_3818)">
<rect x="60" y="54" width="385" height="325" rx="20" fill="white"/>
</g>
<circle cx="252" cy="154" r="60" fill="url(#paint0_linear_1321_3818)"/>
<path d="M130.944 302.21H125.472L124.464 305H122.736L127.272 292.526H129.162L133.68 305H131.952L130.944 302.21ZM130.476 300.878L128.208 294.542L125.94 300.878H130.476ZM140.463 294.956C141.663 294.956 142.635 295.322 143.379 296.054C144.123 296.774 144.495 297.818 144.495 299.186V305H142.875V299.42C142.875 298.436 142.629 297.686 142.137 297.17C141.645 296.642 140.973 296.378 140.121 296.378C139.257 296.378 138.567 296.648 138.051 297.188C137.547 297.728 137.295 298.514 137.295 299.546V305H135.657V295.136H137.295V296.54C137.619 296.036 138.057 295.646 138.609 295.37C139.173 295.094 139.791 294.956 140.463 294.956ZM149.168 296.486V302.3C149.168 302.78 149.27 303.122 149.474 303.326C149.678 303.518 150.032 303.614 150.536 303.614H151.742V305H150.266C149.354 305 148.67 304.79 148.214 304.37C147.758 303.95 147.53 303.26 147.53 302.3V296.486H146.252V295.136H147.53V292.652H149.168V295.136H151.742V296.486H149.168ZM154.573 293.534C154.261 293.534 153.997 293.426 153.781 293.21C153.565 292.994 153.457 292.73 153.457 292.418C153.457 292.106 153.565 291.842 153.781 291.626C153.997 291.41 154.261 291.302 154.573 291.302C154.873 291.302 155.125 291.41 155.329 291.626C155.545 291.842 155.653 292.106 155.653 292.418C155.653 292.73 155.545 292.994 155.329 293.21C155.125 293.426 154.873 293.534 154.573 293.534ZM155.365 295.136V305H153.727V295.136H155.365ZM157.545 300.05C157.545 299.03 157.749 298.142 158.157 297.386C158.565 296.618 159.129 296.024 159.849 295.604C160.581 295.184 161.415 294.974 162.351 294.974C163.563 294.974 164.559 295.268 165.339 295.856C166.131 296.444 166.653 297.26 166.905 298.304H165.141C164.973 297.704 164.643 297.23 164.151 296.882C163.671 296.534 163.071 296.36 162.351 296.36C161.415 296.36 160.659 296.684 160.083 297.332C159.507 297.968 159.219 298.874 159.219 300.05C159.219 301.238 159.507 302.156 160.083 302.804C160.659 303.452 161.415 303.776 162.351 303.776C163.071 303.776 163.671 303.608 164.151 303.272C164.631 302.936 164.961 302.456 165.141 301.832H166.905C166.641 302.84 166.113 303.65 165.321 304.262C164.529 304.862 163.539 305.162 162.351 305.162C161.415 305.162 160.581 304.952 159.849 304.532C159.129 304.112 158.565 303.518 158.157 302.75C157.749 301.982 157.545 301.082 157.545 300.05ZM169.936 293.534C169.624 293.534 169.36 293.426 169.144 293.21C168.928 292.994 168.82 292.73 168.82 292.418C168.82 292.106 168.928 291.842 169.144 291.626C169.36 291.41 169.624 291.302 169.936 291.302C170.236 291.302 170.488 291.41 170.692 291.626C170.908 291.842 171.016 292.106 171.016 292.418C171.016 292.73 170.908 292.994 170.692 293.21C170.488 293.426 170.236 293.534 169.936 293.534ZM170.728 295.136V305H169.09V295.136H170.728ZM175.158 296.954C175.482 296.39 175.962 295.922 176.598 295.55C177.246 295.166 177.996 294.974 178.848 294.974C179.724 294.974 180.516 295.184 181.224 295.604C181.944 296.024 182.508 296.618 182.916 297.386C183.324 298.142 183.528 299.024 183.528 300.032C183.528 301.028 183.324 301.916 182.916 302.696C182.508 303.476 181.944 304.082 181.224 304.514C180.516 304.946 179.724 305.162 178.848 305.162C178.008 305.162 177.264 304.976 176.616 304.604C175.98 304.22 175.494 303.746 175.158 303.182V309.68H173.52V295.136H175.158V296.954ZM181.854 300.032C181.854 299.288 181.704 298.64 181.404 298.088C181.104 297.536 180.696 297.116 180.18 296.828C179.676 296.54 179.118 296.396 178.506 296.396C177.906 296.396 177.348 296.546 176.832 296.846C176.328 297.134 175.92 297.56 175.608 298.124C175.308 298.676 175.158 299.318 175.158 300.05C175.158 300.794 175.308 301.448 175.608 302.012C175.92 302.564 176.328 302.99 176.832 303.29C177.348 303.578 177.906 303.722 178.506 303.722C179.118 303.722 179.676 303.578 180.18 303.29C180.696 302.99 181.104 302.564 181.404 302.012C181.704 301.448 181.854 300.788 181.854 300.032ZM185.072 300.032C185.072 299.024 185.276 298.142 185.684 297.386C186.092 296.618 186.65 296.024 187.358 295.604C188.078 295.184 188.876 294.974 189.752 294.974C190.616 294.974 191.366 295.16 192.002 295.532C192.638 295.904 193.112 296.372 193.424 296.936V295.136H195.08V305H193.424V303.164C193.1 303.74 192.614 304.22 191.966 304.604C191.33 304.976 190.586 305.162 189.734 305.162C188.858 305.162 188.066 304.946 187.358 304.514C186.65 304.082 186.092 303.476 185.684 302.696C185.276 301.916 185.072 301.028 185.072 300.032ZM193.424 300.05C193.424 299.306 193.274 298.658 192.974 298.106C192.674 297.554 192.266 297.134 191.75 296.846C191.246 296.546 190.688 296.396 190.076 296.396C189.464 296.396 188.906 296.54 188.402 296.828C187.898 297.116 187.496 297.536 187.196 298.088C186.896 298.64 186.746 299.288 186.746 300.032C186.746 300.788 186.896 301.448 187.196 302.012C187.496 302.564 187.898 302.99 188.402 303.29C188.906 303.578 189.464 303.722 190.076 303.722C190.688 303.722 191.246 303.578 191.75 303.29C192.266 302.99 192.674 302.564 192.974 302.012C193.274 301.448 193.424 300.794 193.424 300.05ZM199.846 296.486V302.3C199.846 302.78 199.948 303.122 200.152 303.326C200.356 303.518 200.71 303.614 201.214 303.614H202.42V305H200.944C200.032 305 199.348 304.79 198.892 304.37C198.436 303.95 198.208 303.26 198.208 302.3V296.486H196.93V295.136H198.208V292.652H199.846V295.136H202.42V296.486H199.846ZM213.405 299.69C213.405 300.002 213.387 300.332 213.351 300.68H205.467C205.527 301.652 205.857 302.414 206.457 302.966C207.069 303.506 207.807 303.776 208.671 303.776C209.379 303.776 209.967 303.614 210.435 303.29C210.915 302.954 211.251 302.51 211.443 301.958H213.207C212.943 302.906 212.415 303.68 211.623 304.28C210.831 304.868 209.847 305.162 208.671 305.162C207.735 305.162 206.895 304.952 206.151 304.532C205.419 304.112 204.843 303.518 204.423 302.75C204.003 301.97 203.793 301.07 203.793 300.05C203.793 299.03 203.997 298.136 204.405 297.368C204.813 296.6 205.383 296.012 206.115 295.604C206.859 295.184 207.711 294.974 208.671 294.974C209.607 294.974 210.435 295.178 211.155 295.586C211.875 295.994 212.427 296.558 212.811 297.278C213.207 297.986 213.405 298.79 213.405 299.69ZM211.713 299.348C211.713 298.724 211.575 298.19 211.299 297.746C211.023 297.29 210.645 296.948 210.165 296.72C209.697 296.48 209.175 296.36 208.599 296.36C207.771 296.36 207.063 296.624 206.475 297.152C205.899 297.68 205.569 298.412 205.485 299.348H211.713ZM222.003 296.738C222.291 296.174 222.699 295.736 223.227 295.424C223.767 295.112 224.421 294.956 225.189 294.956V296.648H224.757C222.921 296.648 222.003 297.644 222.003 299.636V305H220.365V295.136H222.003V296.738ZM227.926 293.534C227.614 293.534 227.35 293.426 227.134 293.21C226.918 292.994 226.81 292.73 226.81 292.418C226.81 292.106 226.918 291.842 227.134 291.626C227.35 291.41 227.614 291.302 227.926 291.302C228.226 291.302 228.478 291.41 228.682 291.626C228.898 291.842 229.006 292.106 229.006 292.418C229.006 292.73 228.898 292.994 228.682 293.21C228.478 293.426 228.226 293.534 227.926 293.534ZM228.718 295.136V305H227.08V295.136H228.718ZM235.002 305.162C234.246 305.162 233.568 305.036 232.968 304.784C232.368 304.52 231.894 304.16 231.546 303.704C231.198 303.236 231.006 302.702 230.97 302.102H232.662C232.71 302.594 232.938 302.996 233.346 303.308C233.766 303.62 234.312 303.776 234.984 303.776C235.608 303.776 236.1 303.638 236.46 303.362C236.82 303.086 237 302.738 237 302.318C237 301.886 236.808 301.568 236.424 301.364C236.04 301.148 235.446 300.938 234.642 300.734C233.91 300.542 233.31 300.35 232.842 300.158C232.386 299.954 231.99 299.66 231.654 299.276C231.33 298.88 231.168 298.364 231.168 297.728C231.168 297.224 231.318 296.762 231.618 296.342C231.918 295.922 232.344 295.592 232.896 295.352C233.448 295.1 234.078 294.974 234.786 294.974C235.878 294.974 236.76 295.25 237.432 295.802C238.104 296.354 238.464 297.11 238.512 298.07H236.874C236.838 297.554 236.628 297.14 236.244 296.828C235.872 296.516 235.368 296.36 234.732 296.36C234.144 296.36 233.676 296.486 233.328 296.738C232.98 296.99 232.806 297.32 232.806 297.728C232.806 298.052 232.908 298.322 233.112 298.538C233.328 298.742 233.592 298.91 233.904 299.042C234.228 299.162 234.672 299.3 235.236 299.456C235.944 299.648 236.52 299.84 236.964 300.032C237.408 300.212 237.786 300.488 238.098 300.86C238.422 301.232 238.59 301.718 238.602 302.318C238.602 302.858 238.452 303.344 238.152 303.776C237.852 304.208 237.426 304.55 236.874 304.802C236.334 305.042 235.71 305.162 235.002 305.162ZM246.422 305L242.552 300.644V305H240.914V291.68H242.552V299.51L246.35 295.136H248.636L243.992 300.05L248.654 305H246.422ZM253.67 305.162C252.914 305.162 252.236 305.036 251.636 304.784C251.036 304.52 250.562 304.16 250.214 303.704C249.866 303.236 249.674 302.702 249.638 302.102H251.33C251.378 302.594 251.606 302.996 252.014 303.308C252.434 303.62 252.98 303.776 253.652 303.776C254.276 303.776 254.768 303.638 255.128 303.362C255.488 303.086 255.668 302.738 255.668 302.318C255.668 301.886 255.476 301.568 255.092 301.364C254.708 301.148 254.114 300.938 253.31 300.734C252.578 300.542 251.978 300.35 251.51 300.158C251.054 299.954 250.658 299.66 250.322 299.276C249.998 298.88 249.836 298.364 249.836 297.728C249.836 297.224 249.986 296.762 250.286 296.342C250.586 295.922 251.012 295.592 251.564 295.352C252.116 295.1 252.746 294.974 253.454 294.974C254.546 294.974 255.428 295.25 256.1 295.802C256.772 296.354 257.132 297.11 257.18 298.07H255.542C255.506 297.554 255.296 297.14 254.912 296.828C254.54 296.516 254.036 296.36 253.4 296.36C252.812 296.36 252.344 296.486 251.996 296.738C251.648 296.99 251.474 297.32 251.474 297.728C251.474 298.052 251.576 298.322 251.78 298.538C251.996 298.742 252.26 298.91 252.572 299.042C252.896 299.162 253.34 299.3 253.904 299.456C254.612 299.648 255.188 299.84 255.632 300.032C256.076 300.212 256.454 300.488 256.766 300.86C257.09 301.232 257.258 301.718 257.27 302.318C257.27 302.858 257.12 303.344 256.82 303.776C256.52 304.208 256.094 304.55 255.542 304.802C255.002 305.042 254.378 305.162 253.67 305.162ZM261.274 302.732L259.258 307.574H258.16L259.474 302.732H261.274ZM267.337 300.032C267.337 299.024 267.541 298.142 267.949 297.386C268.357 296.618 268.915 296.024 269.623 295.604C270.343 295.184 271.147 294.974 272.035 294.974C272.803 294.974 273.517 295.154 274.177 295.514C274.837 295.862 275.341 296.324 275.689 296.9V291.68H277.345V305H275.689V303.146C275.365 303.734 274.885 304.22 274.249 304.604C273.613 304.976 272.869 305.162 272.017 305.162C271.141 305.162 270.343 304.946 269.623 304.514C268.915 304.082 268.357 303.476 267.949 302.696C267.541 301.916 267.337 301.028 267.337 300.032ZM275.689 300.05C275.689 299.306 275.539 298.658 275.239 298.106C274.939 297.554 274.531 297.134 274.015 296.846C273.511 296.546 272.953 296.396 272.341 296.396C271.729 296.396 271.171 296.54 270.667 296.828C270.163 297.116 269.761 297.536 269.461 298.088C269.161 298.64 269.011 299.288 269.011 300.032C269.011 300.788 269.161 301.448 269.461 302.012C269.761 302.564 270.163 302.99 270.667 303.29C271.171 303.578 271.729 303.722 272.341 303.722C272.953 303.722 273.511 303.578 274.015 303.29C274.531 302.99 274.939 302.564 275.239 302.012C275.539 301.448 275.689 300.794 275.689 300.05ZM289.114 299.69C289.114 300.002 289.096 300.332 289.06 300.68H281.176C281.236 301.652 281.566 302.414 282.166 302.966C282.778 303.506 283.516 303.776 284.38 303.776C285.088 303.776 285.676 303.614 286.144 303.29C286.624 302.954 286.96 302.51 287.152 301.958H288.916C288.652 302.906 288.124 303.68 287.332 304.28C286.54 304.868 285.556 305.162 284.38 305.162C283.444 305.162 282.604 304.952 281.86 304.532C281.128 304.112 280.552 303.518 280.132 302.75C279.712 301.97 279.502 301.07 279.502 300.05C279.502 299.03 279.706 298.136 280.114 297.368C280.522 296.6 281.092 296.012 281.824 295.604C282.568 295.184 283.42 294.974 284.38 294.974C285.316 294.974 286.144 295.178 286.864 295.586C287.584 295.994 288.136 296.558 288.52 297.278C288.916 297.986 289.114 298.79 289.114 299.69ZM287.422 299.348C287.422 298.724 287.284 298.19 287.008 297.746C286.732 297.29 286.354 296.948 285.874 296.72C285.406 296.48 284.884 296.36 284.308 296.36C283.48 296.36 282.772 296.624 282.184 297.152C281.608 297.68 281.278 298.412 281.194 299.348H287.422ZM292.914 291.68V305H291.276V291.68H292.914ZM295.093 300.032C295.093 299.024 295.297 298.142 295.705 297.386C296.113 296.618 296.671 296.024 297.379 295.604C298.099 295.184 298.897 294.974 299.773 294.974C300.637 294.974 301.387 295.16 302.023 295.532C302.659 295.904 303.133 296.372 303.445 296.936V295.136H305.101V305H303.445V303.164C303.121 303.74 302.635 304.22 301.987 304.604C301.351 304.976 300.607 305.162 299.755 305.162C298.879 305.162 298.087 304.946 297.379 304.514C296.671 304.082 296.113 303.476 295.705 302.696C295.297 301.916 295.093 301.028 295.093 300.032ZM303.445 300.05C303.445 299.306 303.295 298.658 302.995 298.106C302.695 297.554 302.287 297.134 301.771 296.846C301.267 296.546 300.709 296.396 300.097 296.396C299.485 296.396 298.927 296.54 298.423 296.828C297.919 297.116 297.517 297.536 297.217 298.088C296.917 298.64 296.767 299.288 296.767 300.032C296.767 300.788 296.917 301.448 297.217 302.012C297.517 302.564 297.919 302.99 298.423 303.29C298.927 303.578 299.485 303.722 300.097 303.722C300.709 303.722 301.267 303.578 301.771 303.29C302.287 302.99 302.695 302.564 302.995 302.012C303.295 301.448 303.445 300.794 303.445 300.05ZM316.365 295.136L310.425 309.644H308.733L310.677 304.892L306.699 295.136H308.517L311.613 303.128L314.673 295.136H316.365ZM332.441 305L330.803 303.344C330.191 303.98 329.537 304.454 328.841 304.766C328.145 305.066 327.359 305.216 326.483 305.216C325.619 305.216 324.851 305.06 324.179 304.748C323.519 304.436 323.003 303.992 322.631 303.416C322.271 302.84 322.091 302.168 322.091 301.4C322.091 300.524 322.337 299.756 322.829 299.096C323.333 298.424 324.071 297.896 325.043 297.512C324.659 297.056 324.383 296.636 324.215 296.252C324.047 295.868 323.963 295.448 323.963 294.992C323.963 294.464 324.095 293.99 324.359 293.57C324.635 293.138 325.025 292.802 325.529 292.562C326.033 292.322 326.615 292.202 327.275 292.202C327.923 292.202 328.487 292.328 328.967 292.58C329.447 292.832 329.807 293.186 330.047 293.642C330.287 294.086 330.395 294.584 330.371 295.136H328.733C328.745 294.644 328.607 294.26 328.319 293.984C328.031 293.696 327.659 293.552 327.203 293.552C326.723 293.552 326.333 293.69 326.033 293.966C325.745 294.23 325.601 294.572 325.601 294.992C325.601 295.352 325.697 295.7 325.889 296.036C326.093 296.372 326.429 296.786 326.897 297.278L330.641 301.04L330.965 300.536L332.189 298.484H333.953L332.477 301.04C332.273 301.4 332.033 301.778 331.757 302.174L334.583 305H332.441ZM326.483 303.812C327.131 303.812 327.713 303.686 328.229 303.434C328.757 303.182 329.255 302.792 329.723 302.264L326.033 298.556C324.497 299.144 323.729 300.074 323.729 301.346C323.729 302.054 323.981 302.642 324.485 303.11C325.001 303.578 325.667 303.812 326.483 303.812ZM348.638 292.454V293.786H345.218V305H343.58V293.786H340.142V292.454H348.638ZM350.043 300.032C350.043 299.024 350.247 298.142 350.655 297.386C351.063 296.618 351.621 296.024 352.329 295.604C353.049 295.184 353.847 294.974 354.723 294.974C355.587 294.974 356.337 295.16 356.973 295.532C357.609 295.904 358.083 296.372 358.395 296.936V295.136H360.051V305H358.395V303.164C358.071 303.74 357.585 304.22 356.937 304.604C356.301 304.976 355.557 305.162 354.705 305.162C353.829 305.162 353.037 304.946 352.329 304.514C351.621 304.082 351.063 303.476 350.655 302.696C350.247 301.916 350.043 301.028 350.043 300.032ZM358.395 300.05C358.395 299.306 358.245 298.658 357.945 298.106C357.645 297.554 357.237 297.134 356.721 296.846C356.217 296.546 355.659 296.396 355.047 296.396C354.435 296.396 353.877 296.54 353.373 296.828C352.869 297.116 352.467 297.536 352.167 298.088C351.867 298.64 351.717 299.288 351.717 300.032C351.717 300.788 351.867 301.448 352.167 302.012C352.467 302.564 352.869 302.99 353.373 303.29C353.877 303.578 354.435 303.722 355.047 303.722C355.659 303.722 356.217 303.578 356.721 303.29C357.237 302.99 357.645 302.564 357.945 302.012C358.245 301.448 358.395 300.794 358.395 300.05ZM368.327 305L364.457 300.644V305H362.819V291.68H364.457V299.51L368.255 295.136H370.541L365.897 300.05L370.559 305H368.327ZM381.082 299.69C381.082 300.002 381.064 300.332 381.028 300.68H373.144C373.204 301.652 373.534 302.414 374.134 302.966C374.746 303.506 375.484 303.776 376.348 303.776C377.056 303.776 377.644 303.614 378.112 303.29C378.592 302.954 378.928 302.51 379.12 301.958H380.884C380.62 302.906 380.092 303.68 379.3 304.28C378.508 304.868 377.524 305.162 376.348 305.162C375.412 305.162 374.572 304.952 373.828 304.532C373.096 304.112 372.52 303.518 372.1 302.75C371.68 301.97 371.47 301.07 371.47 300.05C371.47 299.03 371.674 298.136 372.082 297.368C372.49 296.6 373.06 296.012 373.792 295.604C374.536 295.184 375.388 294.974 376.348 294.974C377.284 294.974 378.112 295.178 378.832 295.586C379.552 295.994 380.104 296.558 380.488 297.278C380.884 297.986 381.082 298.79 381.082 299.69ZM379.39 299.348C379.39 298.724 379.252 298.19 378.976 297.746C378.7 297.29 378.322 296.948 377.842 296.72C377.374 296.48 376.852 296.36 376.276 296.36C375.448 296.36 374.74 296.624 374.152 297.152C373.576 297.68 373.246 298.412 373.162 299.348H379.39ZM224.218 327.032C224.218 326.024 224.422 325.142 224.83 324.386C225.238 323.618 225.796 323.024 226.504 322.604C227.224 322.184 228.022 321.974 228.898 321.974C229.762 321.974 230.512 322.16 231.148 322.532C231.784 322.904 232.258 323.372 232.57 323.936V322.136H234.226V332H232.57V330.164C232.246 330.74 231.76 331.22 231.112 331.604C230.476 331.976 229.732 332.162 228.88 332.162C228.004 332.162 227.212 331.946 226.504 331.514C225.796 331.082 225.238 330.476 224.83 329.696C224.422 328.916 224.218 328.028 224.218 327.032ZM232.57 327.05C232.57 326.306 232.42 325.658 232.12 325.106C231.82 324.554 231.412 324.134 230.896 323.846C230.392 323.546 229.834 323.396 229.222 323.396C228.61 323.396 228.052 323.54 227.548 323.828C227.044 324.116 226.642 324.536 226.342 325.088C226.042 325.64 225.892 326.288 225.892 327.032C225.892 327.788 226.042 328.448 226.342 329.012C226.642 329.564 227.044 329.99 227.548 330.29C228.052 330.578 228.61 330.722 229.222 330.722C229.834 330.722 230.392 330.578 230.896 330.29C231.412 329.99 231.82 329.564 232.12 329.012C232.42 328.448 232.57 327.794 232.57 327.05ZM236.382 327.05C236.382 326.03 236.586 325.142 236.994 324.386C237.402 323.618 237.966 323.024 238.686 322.604C239.418 322.184 240.252 321.974 241.188 321.974C242.4 321.974 243.396 322.268 244.176 322.856C244.968 323.444 245.49 324.26 245.742 325.304H243.978C243.81 324.704 243.48 324.23 242.988 323.882C242.508 323.534 241.908 323.36 241.188 323.36C240.252 323.36 239.496 323.684 238.92 324.332C238.344 324.968 238.056 325.874 238.056 327.05C238.056 328.238 238.344 329.156 238.92 329.804C239.496 330.452 240.252 330.776 241.188 330.776C241.908 330.776 242.508 330.608 242.988 330.272C243.468 329.936 243.798 329.456 243.978 328.832H245.742C245.478 329.84 244.95 330.65 244.158 331.262C243.366 331.862 242.376 332.162 241.188 332.162C240.252 332.162 239.418 331.952 238.686 331.532C237.966 331.112 237.402 330.518 236.994 329.75C236.586 328.982 236.382 328.082 236.382 327.05ZM249.926 323.486V329.3C249.926 329.78 250.028 330.122 250.232 330.326C250.436 330.518 250.79 330.614 251.294 330.614H252.5V332H251.024C250.112 332 249.428 331.79 248.972 331.37C248.516 330.95 248.288 330.26 248.288 329.3V323.486H247.01V322.136H248.288V319.652H249.926V322.136H252.5V323.486H249.926ZM255.331 320.534C255.019 320.534 254.755 320.426 254.539 320.21C254.323 319.994 254.215 319.73 254.215 319.418C254.215 319.106 254.323 318.842 254.539 318.626C254.755 318.41 255.019 318.302 255.331 318.302C255.631 318.302 255.883 318.41 256.087 318.626C256.303 318.842 256.411 319.106 256.411 319.418C256.411 319.73 256.303 319.994 256.087 320.21C255.883 320.426 255.631 320.534 255.331 320.534ZM256.123 322.136V332H254.485V322.136H256.123ZM263.216 332.162C262.292 332.162 261.452 331.952 260.696 331.532C259.952 331.112 259.364 330.518 258.932 329.75C258.512 328.97 258.302 328.07 258.302 327.05C258.302 326.042 258.518 325.154 258.95 324.386C259.394 323.606 259.994 323.012 260.75 322.604C261.506 322.184 262.352 321.974 263.288 321.974C264.224 321.974 265.07 322.184 265.826 322.604C266.582 323.012 267.176 323.6 267.608 324.368C268.052 325.136 268.274 326.03 268.274 327.05C268.274 328.07 268.046 328.97 267.59 329.75C267.146 330.518 266.54 331.112 265.772 331.532C265.004 331.952 264.152 332.162 263.216 332.162ZM263.216 330.722C263.804 330.722 264.356 330.584 264.872 330.308C265.388 330.032 265.802 329.618 266.114 329.066C266.438 328.514 266.6 327.842 266.6 327.05C266.6 326.258 266.444 325.586 266.132 325.034C265.82 324.482 265.412 324.074 264.908 323.81C264.404 323.534 263.858 323.396 263.27 323.396C262.67 323.396 262.118 323.534 261.614 323.81C261.122 324.074 260.726 324.482 260.426 325.034C260.126 325.586 259.976 326.258 259.976 327.05C259.976 327.854 260.12 328.532 260.408 329.084C260.708 329.636 261.104 330.05 261.596 330.326C262.088 330.59 262.628 330.722 263.216 330.722ZM275.234 321.956C276.434 321.956 277.406 322.322 278.15 323.054C278.894 323.774 279.266 324.818 279.266 326.186V332H277.646V326.42C277.646 325.436 277.4 324.686 276.908 324.17C276.416 323.642 275.744 323.378 274.892 323.378C274.028 323.378 273.338 323.648 272.822 324.188C272.318 324.728 272.066 325.514 272.066 326.546V332H270.428V322.136H272.066V323.54C272.39 323.036 272.828 322.646 273.38 322.37C273.944 322.094 274.562 321.956 275.234 321.956Z" fill="#000000"/>
<path d="M153.464 260L149.624 253.328H147.536V260H144.8V243.32H150.56C151.84 243.32 152.92 243.544 153.8 243.992C154.696 244.44 155.36 245.04 155.792 245.792C156.24 246.544 156.464 247.384 156.464 248.312C156.464 249.4 156.144 250.392 155.504 251.288C154.88 252.168 153.912 252.768 152.6 253.088L156.728 260H153.464ZM147.536 251.144H150.56C151.584 251.144 152.352 250.888 152.864 250.376C153.392 249.864 153.656 249.176 153.656 248.312C153.656 247.448 153.4 246.776 152.888 246.296C152.376 245.8 151.6 245.552 150.56 245.552H147.536V251.144ZM161.356 245.024C160.86 245.024 160.444 244.856 160.108 244.52C159.772 244.184 159.604 243.768 159.604 243.272C159.604 242.776 159.772 242.36 160.108 242.024C160.444 241.688 160.86 241.52 161.356 241.52C161.836 241.52 162.244 241.688 162.58 242.024C162.916 242.36 163.084 242.776 163.084 243.272C163.084 243.768 162.916 244.184 162.58 244.52C162.244 244.856 161.836 245.024 161.356 245.024ZM162.7 246.776V260H159.964V246.776H162.7ZM171.092 260.216C170.052 260.216 169.116 260.032 168.284 259.664C167.468 259.28 166.82 258.768 166.34 258.128C165.86 257.472 165.604 256.744 165.572 255.944H168.404C168.452 256.504 168.716 256.976 169.196 257.36C169.692 257.728 170.308 257.912 171.044 257.912C171.812 257.912 172.404 257.768 172.82 257.48C173.252 257.176 173.468 256.792 173.468 256.328C173.468 255.832 173.228 255.464 172.748 255.224C172.284 254.984 171.54 254.72 170.516 254.432C169.524 254.16 168.716 253.896 168.092 253.64C167.468 253.384 166.924 252.992 166.46 252.464C166.012 251.936 165.788 251.24 165.788 250.376C165.788 249.672 165.996 249.032 166.412 248.456C166.828 247.864 167.42 247.4 168.188 247.064C168.972 246.728 169.868 246.56 170.876 246.56C172.38 246.56 173.588 246.944 174.5 247.712C175.428 248.464 175.924 249.496 175.988 250.808H173.252C173.204 250.216 172.964 249.744 172.532 249.392C172.1 249.04 171.516 248.864 170.78 248.864C170.06 248.864 169.508 249 169.124 249.272C168.74 249.544 168.548 249.904 168.548 250.352C168.548 250.704 168.676 251 168.932 251.24C169.188 251.48 169.5 251.672 169.868 251.816C170.236 251.944 170.78 252.112 171.5 252.32C172.46 252.576 173.244 252.84 173.852 253.112C174.476 253.368 175.012 253.752 175.46 254.264C175.908 254.776 176.14 255.456 176.156 256.304C176.156 257.056 175.948 257.728 175.532 258.32C175.116 258.912 174.524 259.376 173.756 259.712C173.004 260.048 172.116 260.216 171.092 260.216ZM184.345 253.4L190.441 260H186.745L181.849 254.312V260H179.113V242.24H181.849V252.56L186.649 246.776H190.441L184.345 253.4ZM216.204 243.32V260H213.468V248.576L208.38 260H206.484L201.372 248.576V260H198.636V243.32H201.588L207.444 256.4L213.276 243.32H216.204ZM218.888 253.328C218.888 252 219.16 250.824 219.704 249.8C220.264 248.776 221.016 247.984 221.96 247.424C222.92 246.848 223.976 246.56 225.128 246.56C226.168 246.56 227.072 246.768 227.84 247.184C228.624 247.584 229.248 248.088 229.712 248.696V246.776H232.472V260H229.712V258.032C229.248 258.656 228.616 259.176 227.816 259.592C227.016 260.008 226.104 260.216 225.08 260.216C223.944 260.216 222.904 259.928 221.96 259.352C221.016 258.76 220.264 257.944 219.704 256.904C219.16 255.848 218.888 254.656 218.888 253.328ZM229.712 253.376C229.712 252.464 229.52 251.672 229.136 251C228.768 250.328 228.28 249.816 227.672 249.464C227.064 249.112 226.408 248.936 225.704 248.936C225 248.936 224.344 249.112 223.736 249.464C223.128 249.8 222.632 250.304 222.248 250.976C221.88 251.632 221.696 252.416 221.696 253.328C221.696 254.24 221.88 255.04 222.248 255.728C222.632 256.416 223.128 256.944 223.736 257.312C224.36 257.664 225.016 257.84 225.704 257.84C226.408 257.84 227.064 257.664 227.672 257.312C228.28 256.96 228.768 256.448 229.136 255.776C229.52 255.088 229.712 254.288 229.712 253.376ZM242.738 246.56C243.778 246.56 244.706 246.776 245.522 247.208C246.354 247.64 247.002 248.28 247.466 249.128C247.93 249.976 248.162 251 248.162 252.2V260H245.45V252.608C245.45 251.424 245.154 250.52 244.562 249.896C243.97 249.256 243.162 248.936 242.138 248.936C241.114 248.936 240.298 249.256 239.69 249.896C239.098 250.52 238.802 251.424 238.802 252.608V260H236.066V246.776H238.802V248.288C239.25 247.744 239.818 247.32 240.506 247.016C241.21 246.712 241.954 246.56 242.738 246.56ZM250.74 253.328C250.74 252 251.012 250.824 251.556 249.8C252.116 248.776 252.868 247.984 253.812 247.424C254.772 246.848 255.828 246.56 256.98 246.56C258.02 246.56 258.924 246.768 259.692 247.184C260.476 247.584 261.1 248.088 261.564 248.696V246.776H264.324V260H261.564V258.032C261.1 258.656 260.468 259.176 259.668 259.592C258.868 260.008 257.956 260.216 256.932 260.216C255.796 260.216 254.756 259.928 253.812 259.352C252.868 258.76 252.116 257.944 251.556 256.904C251.012 255.848 250.74 254.656 250.74 253.328ZM261.564 253.376C261.564 252.464 261.372 251.672 260.988 251C260.62 250.328 260.132 249.816 259.524 249.464C258.916 249.112 258.26 248.936 257.556 248.936C256.852 248.936 256.196 249.112 255.588 249.464C254.98 249.8 254.484 250.304 254.1 250.976C253.732 251.632 253.548 252.416 253.548 253.328C253.548 254.24 253.732 255.04 254.1 255.728C254.484 256.416 254.98 256.944 255.588 257.312C256.212 257.664 256.868 257.84 257.556 257.84C258.26 257.84 258.916 257.664 259.524 257.312C260.132 256.96 260.62 256.448 260.988 255.776C261.372 255.088 261.564 254.288 261.564 253.376ZM273.245 246.56C274.269 246.56 275.173 246.768 275.957 247.184C276.757 247.584 277.381 248.088 277.829 248.696V246.776H280.589V260.216C280.589 261.432 280.333 262.512 279.821 263.456C279.309 264.416 278.565 265.168 277.589 265.712C276.629 266.256 275.477 266.528 274.133 266.528C272.341 266.528 270.853 266.104 269.669 265.256C268.485 264.424 267.813 263.288 267.653 261.848H270.365C270.573 262.536 271.013 263.088 271.685 263.504C272.373 263.936 273.189 264.152 274.133 264.152C275.237 264.152 276.125 263.816 276.797 263.144C277.485 262.472 277.829 261.496 277.829 260.216V258.008C277.365 258.632 276.733 259.16 275.933 259.592C275.149 260.008 274.253 260.216 273.245 260.216C272.093 260.216 271.037 259.928 270.077 259.352C269.133 258.76 268.381 257.944 267.821 256.904C267.277 255.848 267.005 254.656 267.005 253.328C267.005 252 267.277 250.824 267.821 249.8C268.381 248.776 269.133 247.984 270.077 247.424C271.037 246.848 272.093 246.56 273.245 246.56ZM277.829 253.376C277.829 252.464 277.637 251.672 277.253 251C276.885 250.328 276.397 249.816 275.789 249.464C275.181 249.112 274.525 248.936 273.821 248.936C273.117 248.936 272.461 249.112 271.853 249.464C271.245 249.8 270.749 250.304 270.365 250.976C269.997 251.632 269.813 252.416 269.813 253.328C269.813 254.24 269.997 255.04 270.365 255.728C270.749 256.416 271.245 256.944 271.853 257.312C272.477 257.664 273.133 257.84 273.821 257.84C274.525 257.84 275.181 257.664 275.789 257.312C276.397 256.96 276.885 256.448 277.253 255.776C277.637 255.088 277.829 254.288 277.829 253.376ZM296.303 253.064C296.303 253.56 296.271 254.008 296.207 254.408H286.103C286.183 255.464 286.575 256.312 287.279 256.952C287.983 257.592 288.847 257.912 289.871 257.912C291.343 257.912 292.383 257.296 292.991 256.064H295.943C295.543 257.28 294.815 258.28 293.759 259.064C292.719 259.832 291.423 260.216 289.871 260.216C288.607 260.216 287.471 259.936 286.463 259.376C285.471 258.8 284.687 258 284.111 256.976C283.551 255.936 283.271 254.736 283.271 253.376C283.271 252.016 283.543 250.824 284.087 249.8C284.647 248.76 285.423 247.96 286.415 247.4C287.423 246.84 288.575 246.56 289.871 246.56C291.119 246.56 292.231 246.832 293.207 247.376C294.183 247.92 294.943 248.688 295.487 249.68C296.031 250.656 296.303 251.784 296.303 253.064ZM293.447 252.2C293.431 251.192 293.071 250.384 292.367 249.776C291.663 249.168 290.791 248.864 289.751 248.864C288.807 248.864 287.999 249.168 287.327 249.776C286.655 250.368 286.255 251.176 286.127 252.2H293.447ZM315.003 246.56C316.043 246.56 316.971 246.776 317.787 247.208C318.619 247.64 319.267 248.28 319.731 249.128C320.211 249.976 320.451 251 320.451 252.2V260H317.739V252.608C317.739 251.424 317.443 250.52 316.851 249.896C316.259 249.256 315.451 248.936 314.427 248.936C313.403 248.936 312.587 249.256 311.979 249.896C311.387 250.52 311.091 251.424 311.091 252.608V260H308.379V252.608C308.379 251.424 308.083 250.52 307.491 249.896C306.899 249.256 306.091 248.936 305.067 248.936C304.043 248.936 303.227 249.256 302.619 249.896C302.027 250.52 301.731 251.424 301.731 252.608V260H298.995V246.776H301.731V248.288C302.179 247.744 302.747 247.32 303.435 247.016C304.123 246.712 304.859 246.56 305.643 246.56C306.699 246.56 307.643 246.784 308.475 247.232C309.307 247.68 309.947 248.328 310.395 249.176C310.795 248.376 311.419 247.744 312.267 247.28C313.115 246.8 314.027 246.56 315.003 246.56ZM336.053 253.064C336.053 253.56 336.021 254.008 335.957 254.408H325.853C325.933 255.464 326.325 256.312 327.029 256.952C327.733 257.592 328.597 257.912 329.621 257.912C331.093 257.912 332.133 257.296 332.741 256.064H335.693C335.293 257.28 334.565 258.28 333.509 259.064C332.469 259.832 331.173 260.216 329.621 260.216C328.357 260.216 327.221 259.936 326.213 259.376C325.221 258.8 324.437 258 323.861 256.976C323.301 255.936 323.021 254.736 323.021 253.376C323.021 252.016 323.293 250.824 323.837 249.8C324.397 248.76 325.173 247.96 326.165 247.4C327.173 246.84 328.325 246.56 329.621 246.56C330.869 246.56 331.981 246.832 332.957 247.376C333.933 247.92 334.693 248.688 335.237 249.68C335.781 250.656 336.053 251.784 336.053 253.064ZM333.197 252.2C333.181 251.192 332.821 250.384 332.117 249.776C331.413 249.168 330.541 248.864 329.501 248.864C328.557 248.864 327.749 249.168 327.077 249.776C326.405 250.368 326.005 251.176 325.877 252.2H333.197ZM345.417 246.56C346.457 246.56 347.385 246.776 348.201 247.208C349.033 247.64 349.681 248.28 350.145 249.128C350.609 249.976 350.841 251 350.841 252.2V260H348.129V252.608C348.129 251.424 347.833 250.52 347.241 249.896C346.649 249.256 345.841 248.936 344.817 248.936C343.793 248.936 342.977 249.256 342.369 249.896C341.777 250.52 341.481 251.424 341.481 252.608V260H338.745V246.776H341.481V248.288C341.929 247.744 342.497 247.32 343.185 247.016C343.889 246.712 344.633 246.56 345.417 246.56ZM357.523 249.008V256.328C357.523 256.824 357.635 257.184 357.859 257.408C358.099 257.616 358.499 257.72 359.059 257.72H360.739V260H358.579C357.347 260 356.403 259.712 355.747 259.136C355.091 258.56 354.763 257.624 354.763 256.328V249.008H353.203V246.776H354.763V243.488H357.523V246.776H360.739V249.008H357.523Z" fill="#000000"/>
<path opacity="0.4" d="M263.173 127.333H240.826C231.12 127.333 225.333 133.12 225.333 142.827V165.147C225.333 174.88 231.12 180.667 240.826 180.667H263.146C272.853 180.667 278.64 174.88 278.64 165.174V142.827C278.666 133.12 272.88 127.333 263.173 127.333Z" fill="white"/>
<path d="M239.547 162.64C239.12 162.64 238.693 162.507 238.32 162.213C237.44 161.547 237.28 160.293 237.947 159.413L244.293 151.173C245.067 150.187 246.16 149.547 247.413 149.387C248.64 149.227 249.893 149.573 250.88 150.347L255.76 154.187C255.947 154.347 256.133 154.347 256.267 154.32C256.373 154.32 256.56 154.267 256.72 154.053L262.88 146.107C263.547 145.227 264.827 145.067 265.68 145.76C266.56 146.427 266.72 147.68 266.027 148.56L259.867 156.507C259.093 157.493 258 158.133 256.747 158.267C255.493 158.427 254.267 158.08 253.28 157.307L248.4 153.467C248.213 153.307 248 153.307 247.893 153.333C247.787 153.333 247.6 153.387 247.44 153.6L241.093 161.84C240.747 162.373 240.16 162.64 239.547 162.64Z" fill="white"/>
<defs>
<filter id="filter0_d_1321_3818" x="0" y="0" width="505" height="445" filterUnits="userSpaceOnUse" color-interpolation-filters="sRGB">
<feFlood flood-opacity="0" result="BackgroundImageFix"/>
<feColorMatrix in="SourceAlpha" type="matrix" values="0 0 0 0 0 0 0 0 0 0 0 0 0 0 0 0 0 0 127 0" result="hardAlpha"/>
<feOffset dy="6"/>
<feGaussianBlur stdDeviation="30"/>
<feColorMatrix type="matrix" values="0 0 0 0 0.172549 0 0 0 0 0.152941 0 0 0 0 0.219608 0 0 0 0.06 0"/>
<feBlend mode="normal" in2="BackgroundImageFix" result="effect1_dropShadow_1321_3818"/>
<feBlend mode="normal" in="SourceGraphic" in2="effect1_dropShadow_1321_3818" result="shape"/>
</filter>
<linearGradient id="paint0_linear_1321_3818" x1="192" y1="89.5" x2="339.5" y2="221" gradientUnits="userSpaceOnUse">
<stop stop-color="#D7A5FF"/>
<stop offset="1" stop-color="#7A73FF"/>
</linearGradient>
</defs>
</svg>
