<svg width="153" height="146" viewBox="0 0 153 146" fill="none" xmlns="http://www.w3.org/2000/svg">
<rect x="5" y="9.98361" width="144" height="132.016" rx="16" stroke="#202020" stroke-width="8"/>
<line y1="-1.5" x2="152.004" y2="-1.5" transform="matrix(0.999969 -0.00787292 0.0080001 0.999968 1 38.2951)" stroke="#202020" stroke-width="3"/>
<line x1="25.2143" y1="60.9262" x2="38.3095" y2="60.9262" stroke="#202020" stroke-width="5" stroke-linecap="round"/>
<line x1="25.2143" y1="60.9262" x2="38.3095" y2="60.9262" stroke="#202020" stroke-width="5" stroke-linecap="round"/>
<line x1="54.1667" y1="60.9262" x2="67.2619" y2="60.9262" stroke="#202020" stroke-width="5" stroke-linecap="round"/>
<line x1="85.5317" y1="96.8279" x2="98.627" y2="96.8279" stroke="#202020" stroke-width="5" stroke-linecap="round"/>
<line x1="115.69" y1="78.877" x2="128.786" y2="78.877" stroke="#202020" stroke-width="5" stroke-linecap="round"/>
<line x1="25.2143" y1="96.8279" x2="38.3095" y2="96.8279" stroke="#202020" stroke-width="5" stroke-linecap="round"/>
<line x1="54.1667" y1="96.8279" x2="67.2619" y2="96.8279" stroke="#202020" stroke-width="5" stroke-linecap="round"/>
<line x1="85.5317" y1="78.877" x2="98.627" y2="78.877" stroke="#202020" stroke-width="5" stroke-linecap="round"/>
<line x1="54.1667" y1="78.877" x2="67.2619" y2="78.877" stroke="#202020" stroke-width="5" stroke-linecap="round"/>
<line x1="25.2143" y1="78.877" x2="38.3095" y2="78.877" stroke="#202020" stroke-width="5" stroke-linecap="round"/>
<line x1="115.69" y1="60.9262" x2="128.786" y2="60.9262" stroke="#202020" stroke-width="5" stroke-linecap="round"/>
<line x1="85.5317" y1="60.9262" x2="98.627" y2="60.9262" stroke="#202020" stroke-width="5" stroke-linecap="round"/>
<line x1="45.8095" y1="5" x2="45.8095" y2="11.7541" stroke="#202020" stroke-width="10" stroke-linecap="round"/>
<line x1="106.127" y1="5" x2="106.127" y2="11.7541" stroke="#202020" stroke-width="10" stroke-linecap="round"/>
</svg>
