<svg width="50" height="50" viewBox="0 0 50 50" fill="none" xmlns="http://www.w3.org/2000/svg">
<rect width="50" height="50" rx="8" fill="#7A73FF" fill-opacity="0.1"/>
<path d="M36.25 17.4746C32.0875 17.0621 27.9 16.8496 23.725 16.8496C21.25 16.8496 18.775 16.9746 16.3 17.2246L13.75 17.4746" stroke="#7A73FF" stroke-width="1.5" stroke-linecap="round" stroke-linejoin="round"/>
<path d="M20.625 16.2125L20.9 14.575C21.1 13.3875 21.25 12.5 23.3625 12.5H26.6375C28.75 12.5 28.9125 13.4375 29.1 14.5875L29.375 16.2125" stroke="#7A73FF" stroke-width="1.5" stroke-linecap="round" stroke-linejoin="round"/>
<path d="M33.5625 21.4248L32.75 34.0123C32.6125 35.9748 32.5 37.4998 29.0125 37.4998H20.9875C17.5 37.4998 17.3875 35.9748 17.25 34.0123L16.4375 21.4248" stroke="#7A73FF" stroke-width="1.5" stroke-linecap="round" stroke-linejoin="round"/>
<path d="M22.9121 30.625H27.0746" stroke="#7A73FF" stroke-width="1.5" stroke-linecap="round" stroke-linejoin="round"/>
<path d="M21.875 25.625H28.125" stroke="#7A73FF" stroke-width="1.5" stroke-linecap="round" stroke-linejoin="round"/>
</svg>
