<svg width="24" height="24" viewBox="0 0 24 24" fill="none" xmlns="http://www.w3.org/2000/svg">
<path d="M11.2049 18.0455C11.3094 18.1499 11.4334 18.2328 11.5699 18.2894C11.7064 18.3459 11.8527 18.375 12.0004 18.375C12.1482 18.375 12.2945 18.3459 12.431 18.2894C12.5675 18.2328 12.6915 18.1499 12.796 18.0455L17.0386 13.8029C17.2495 13.5919 17.3681 13.3057 17.3681 13.0074C17.3681 12.709 17.2495 12.4229 17.0386 12.2119C16.8276 12.0009 16.5414 11.8824 16.2431 11.8824C15.9447 11.8824 15.6586 12.0009 15.4476 12.2119L13.1254 14.534V2.25C13.1254 1.95163 13.0069 1.66548 12.7959 1.4545C12.585 1.24353 12.2988 1.125 12.0004 1.125C11.7021 1.125 11.4159 1.24353 11.2049 1.4545C10.994 1.66548 10.8754 1.95163 10.8754 2.25V14.534L8.5533 12.2119C8.34232 12.0009 8.05617 11.8824 7.75781 11.8824C7.45944 11.8824 7.17329 12.0009 6.96231 12.2119C6.75134 12.4229 6.63281 12.709 6.63281 13.0074C6.63281 13.3057 6.75134 13.5919 6.96231 13.8029L11.2049 18.0455Z" fill="#454545"/>
<path d="M21.75 10.875C21.4516 10.875 21.1655 10.9935 20.9545 11.2045C20.7435 11.4155 20.625 11.7016 20.625 12V20.625H3.375V12C3.375 11.7016 3.25647 11.4155 3.0455 11.2045C2.83452 10.9935 2.54837 10.875 2.25 10.875C1.95163 10.875 1.66548 10.9935 1.4545 11.2045C1.24353 11.4155 1.125 11.7016 1.125 12V21C1.125 21.4973 1.32254 21.9742 1.67417 22.3258C2.02581 22.6775 2.50272 22.875 3 22.875H21C21.4973 22.875 21.9742 22.6775 22.3258 22.3258C22.6775 21.9742 22.875 21.4973 22.875 21V12C22.875 11.7016 22.7565 11.4155 22.5455 11.2045C22.3345 10.9935 22.0484 10.875 21.75 10.875Z" fill="#454545"/>
</svg>
