<svg width="23" height="25" viewBox="0 0 23 25" fill="none" xmlns="http://www.w3.org/2000/svg">
<path d="M13.9783 0H3.83333C2.81667 0 1.84165 0.32924 1.12276 0.915291C0.403868 1.50134 0 2.2962 0 3.125V21.875C0 22.7038 0.403868 23.4987 1.12276 24.0847C1.84165 24.6708 2.81667 25 3.83333 25H19.1667C20.1833 25 21.1584 24.6708 21.8772 24.0847C22.5961 23.4987 23 22.7038 23 21.875V7.35469C22.9999 6.94032 22.7979 6.54296 22.4384 6.25L15.3333 0.457812C14.974 0.164767 14.4865 8.84959e-05 13.9783 0ZM14.375 5.46875V2.34375L20.125 7.03125H16.2917C15.7833 7.03125 15.2958 6.86663 14.9364 6.5736C14.5769 6.28058 14.375 5.88315 14.375 5.46875ZM4.79167 14.0625C4.5375 14.0625 4.29375 13.9802 4.11402 13.8337C3.9343 13.6872 3.83333 13.4885 3.83333 13.2812C3.83333 13.074 3.9343 12.8753 4.11402 12.7288C4.29375 12.5823 4.5375 12.5 4.79167 12.5H18.2083C18.4625 12.5 18.7063 12.5823 18.886 12.7288C19.0657 12.8753 19.1667 13.074 19.1667 13.2812C19.1667 13.4885 19.0657 13.6872 18.886 13.8337C18.7063 13.9802 18.4625 14.0625 18.2083 14.0625H4.79167ZM3.83333 16.4062C3.83333 16.199 3.9343 16.0003 4.11402 15.8538C4.29375 15.7073 4.5375 15.625 4.79167 15.625H18.2083C18.4625 15.625 18.7063 15.7073 18.886 15.8538C19.0657 16.0003 19.1667 16.199 19.1667 16.4062C19.1667 16.6134 19.0657 16.8122 18.886 16.9587C18.7063 17.1052 18.4625 17.1875 18.2083 17.1875H4.79167C4.5375 17.1875 4.29375 17.1052 4.11402 16.9587C3.9343 16.8122 3.83333 16.6134 3.83333 16.4062ZM4.79167 20.3125C4.5375 20.3125 4.29375 20.2302 4.11402 20.0837C3.9343 19.9372 3.83333 19.7384 3.83333 19.5312C3.83333 19.324 3.9343 19.1253 4.11402 18.9788C4.29375 18.8323 4.5375 18.75 4.79167 18.75H12.4583C12.7125 18.75 12.9563 18.8323 13.136 18.9788C13.3157 19.1253 13.4167 19.324 13.4167 19.5312C13.4167 19.7384 13.3157 19.9372 13.136 20.0837C12.9563 20.2302 12.7125 20.3125 12.4583 20.3125H4.79167Z" fill="#282828"/>
</svg>
