<svg width="75" height="75" viewBox="0 0 75 75" fill="none" xmlns="http://www.w3.org/2000/svg">
<g filter="url(#filter0_d_328_4132)">
<rect x="15" y="13" width="45" height="45" rx="8" fill="white"/>
<rect x="15.5" y="13.5" width="44" height="44" rx="7.5" stroke="black" stroke-opacity="0.06"/>
</g>
<path d="M51 35.2905C51 34.2217 50.9115 33.4417 50.72 32.6328H38.2656V37.4571H45.5761C45.4287 38.656 44.6328 40.4615 42.8641 41.6748L42.8393 41.8363L46.7772 44.8259L47.05 44.8526C49.5556 42.5848 51 39.2482 51 35.2905Z" fill="#4285F4"/>
<path d="M38.2642 48.0009C41.8457 48.0009 44.8524 46.8453 47.0485 44.8521L42.8627 41.6743C41.7425 42.4399 40.2391 42.9743 38.2642 42.9743C34.7563 42.9743 31.7791 40.7066 30.7178 37.5723L30.5622 37.5852L26.4676 40.6907L26.4141 40.8366C28.5954 45.0831 33.076 48.0009 38.2642 48.0009Z" fill="#34A853"/>
<path d="M30.7186 37.5714C30.4386 36.7625 30.2765 35.8958 30.2765 35.0003C30.2765 34.1047 30.4386 33.2381 30.7039 32.4292L30.6965 32.2569L26.5505 29.1016L26.4149 29.1648C25.5159 30.927 25 32.9059 25 35.0003C25 37.0947 25.5159 39.0735 26.4149 40.8357L30.7186 37.5714Z" fill="#FBBC05"/>
<path d="M38.2643 27.0265C40.7551 27.0265 42.4353 28.0809 43.3934 28.9621L47.1371 25.3799C44.8379 23.2855 41.8458 22 38.2643 22C33.0762 22 28.5955 24.9177 26.4142 29.1642L30.7032 32.4287C31.7792 29.2943 34.7565 27.0265 38.2643 27.0265Z" fill="#EB4335"/>
<defs>
<filter id="filter0_d_328_4132" x="0" y="0" width="75" height="75" filterUnits="userSpaceOnUse" color-interpolation-filters="sRGB">
<feFlood flood-opacity="0" result="BackgroundImageFix"/>
<feColorMatrix in="SourceAlpha" type="matrix" values="0 0 0 0 0 0 0 0 0 0 0 0 0 0 0 0 0 0 127 0" result="hardAlpha"/>
<feOffset dy="2"/>
<feGaussianBlur stdDeviation="7.5"/>
<feComposite in2="hardAlpha" operator="out"/>
<feColorMatrix type="matrix" values="0 0 0 0 0 0 0 0 0 0 0 0 0 0 0 0 0 0 0.08 0"/>
<feBlend mode="normal" in2="BackgroundImageFix" result="effect1_dropShadow_328_4132"/>
<feBlend mode="normal" in="SourceGraphic" in2="effect1_dropShadow_328_4132" result="shape"/>
</filter>
</defs>
</svg>
