<svg width="50" height="50" viewBox="0 0 50 50" fill="none" xmlns="http://www.w3.org/2000/svg">
<rect width="50" height="50" rx="8" fill="#7A73FF" fill-opacity="0.1"/>
<path d="M21.8125 25C21.8125 26.7574 23.2426 28.1875 25 28.1875C26.7574 28.1875 28.1875 26.7574 28.1875 25C28.1875 23.2426 26.7574 21.8125 25 21.8125C23.2426 21.8125 21.8125 23.2426 21.8125 25Z" fill="#7A73FF"/>
<path d="M21.8125 35.625C21.8125 37.3824 23.2426 38.8125 25 38.8125C26.7574 38.8125 28.1875 37.3824 28.1875 35.625C28.1875 33.8676 26.7574 32.4375 25 32.4375C23.2426 32.4375 21.8125 33.8676 21.8125 35.625Z" fill="#7A73FF"/>
<path d="M21.8125 14.375C21.8125 16.1324 23.2426 17.5625 25 17.5625C26.7574 17.5625 28.1875 16.1324 28.1875 14.375C28.1875 12.6176 26.7574 11.1875 25 11.1875C23.2426 11.1875 21.8125 12.6176 21.8125 14.375Z" fill="#7A73FF"/>
</svg>
