<svg width="26" height="30" viewBox="0 0 26 30" fill="none" xmlns="http://www.w3.org/2000/svg">
<path fill-rule="evenodd" clip-rule="evenodd" d="M6.59863 17.9815H4.32402C4.15475 17.9815 4.01664 17.8435 4.01664 17.6742V15.3996C4.01664 15.2303 4.15469 15.0922 4.32402 15.0922H6.59863C6.76791 15.0922 6.90596 15.2302 6.90596 15.3996V17.6742C6.90602 17.8435 6.76791 17.9815 6.59863 17.9815ZM6.28428 4.79508H15.1814C15.3384 4.79508 15.4664 4.66699 15.4664 4.51002V1.88338C15.4664 1.72641 15.3384 1.59832 15.1814 1.59832H12.7646C12.5435 0.68127 11.7178 0 10.7329 0C9.74793 0 8.92223 0.68127 8.70103 1.59832H6.28434C6.1273 1.59832 5.99928 1.72641 5.99928 1.88338V4.51002C5.99922 4.66699 6.12731 4.79508 6.28428 4.79508ZM21.4296 20.9323C18.9256 20.9323 16.8958 22.9622 16.8958 25.4661C16.8958 27.9701 18.9256 29.9999 21.4296 29.9999C23.9335 29.9999 25.9634 27.9701 25.9634 25.4661C25.9634 22.9622 23.9335 20.9323 21.4296 20.9323ZM18.4756 24.9472C18.6676 24.7552 18.979 24.7552 19.171 24.9472L20.6854 26.4616L23.6881 23.4288C23.8791 23.2368 24.1896 23.2359 24.3817 23.4269C24.5737 23.6179 24.5746 23.9284 24.3836 24.1204L21.0604 27.4768C21.052 27.4866 21.0432 27.4962 21.0338 27.5055C20.8418 27.6975 20.5305 27.6975 20.3384 27.5055L18.4756 25.6427C18.2835 25.4506 18.2835 25.1392 18.4756 24.9472ZM15.1814 5.70727H6.28428C5.62381 5.70727 5.08703 5.17049 5.08703 4.51002V3.1967H1.26561C0.588437 3.1967 0.0361328 3.749 0.0361328 4.42617V27.0492C0.0361328 27.7264 0.588437 28.2787 1.26561 28.2787H16.6823C16.1932 27.4551 15.9121 26.4936 15.9121 25.4662C15.9121 22.419 18.3824 19.9488 21.4295 19.9488V4.42617C21.4295 3.749 20.8772 3.1967 20.2001 3.1967H16.3786V4.51002C16.3787 5.17049 15.8419 5.70727 15.1814 5.70727ZM4.01664 24.252V21.9774C4.01664 21.8081 4.15469 21.67 4.32402 21.67H6.59863C6.76791 21.67 6.90596 21.8081 6.90596 21.9774V24.252C6.90596 24.4213 6.76791 24.5594 6.59863 24.5594H4.32402C4.15475 24.5594 4.01664 24.4213 4.01664 24.252ZM10.1027 22.6536C9.83113 22.6536 9.61094 22.4334 9.61094 22.1619C9.61094 21.8903 9.83113 21.6701 10.1027 21.6701H14.3782C14.6498 21.6701 14.87 21.8903 14.87 22.1619C14.87 22.4334 14.6498 22.6536 14.3782 22.6536H10.1027ZM6.59863 11.4036H4.32402C4.15475 11.4036 4.01664 11.2656 4.01664 11.0963V8.8217C4.01664 8.65242 4.15469 8.51437 4.32402 8.51437H6.59863C6.76791 8.51437 6.90596 8.65242 6.90596 8.8217V11.0963C6.90602 11.2656 6.76791 11.4036 6.59863 11.4036ZM10.1027 17.9815C9.83113 17.9815 9.61094 17.7613 9.61094 17.4898C9.61094 17.2182 9.83113 16.998 10.1027 16.998H17.449C17.7206 16.998 17.9408 17.2182 17.9408 17.4898C17.9408 17.7613 17.7206 17.9815 17.449 17.9815H10.1027ZM10.1027 16.0758C9.83113 16.0758 9.61094 15.8556 9.61094 15.584C9.61094 15.3124 9.83113 15.0922 10.1027 15.0922H17.449C17.7206 15.0922 17.9408 15.3124 17.9408 15.584C17.9408 15.8556 17.7206 16.0758 17.449 16.0758H10.1027ZM10.1027 11.4036C9.83113 11.4036 9.61094 11.1834 9.61094 10.9119C9.61094 10.6403 9.83113 10.4201 10.1027 10.4201H17.449C17.7206 10.4201 17.9408 10.6403 17.9408 10.9119C17.9408 11.1834 17.7206 11.4036 17.449 11.4036H10.1027ZM10.1027 9.49793C9.83113 9.49793 9.61094 9.27773 9.61094 9.00615C9.61094 8.73457 9.83113 8.51437 10.1027 8.51437H17.449C17.7206 8.51437 17.9408 8.73457 17.9408 9.00615C17.9408 9.27773 17.7206 9.49793 17.449 9.49793H10.1027ZM10.1027 24.5594C9.83113 24.5594 9.61094 24.3392 9.61094 24.0676C9.61094 23.796 9.83113 23.5758 10.1027 23.5758H14.3782C14.6498 23.5758 14.87 23.796 14.87 24.0676C14.87 24.3392 14.6498 24.5594 14.3782 24.5594H10.1027Z" fill="#B3ABC4"/>
</svg>
