<svg width="30" height="30" viewBox="0 0 30 30" fill="none" xmlns="http://www.w3.org/2000/svg">
<g clip-path="url(#clip0_502_798)">
<path fill-rule="evenodd" clip-rule="evenodd" d="M8.59863 17.9815H6.32402C6.15475 17.9815 6.01664 17.8435 6.01664 17.6742V15.3996C6.01664 15.2303 6.15469 15.0922 6.32402 15.0922H8.59863C8.76791 15.0922 8.90596 15.2302 8.90596 15.3996V17.6742C8.90602 17.8435 8.76791 17.9815 8.59863 17.9815ZM8.28428 4.79508H17.1814C17.3384 4.79508 17.4664 4.66699 17.4664 4.51002V1.88338C17.4664 1.72641 17.3384 1.59832 17.1814 1.59832H14.7646C14.5435 0.68127 13.7178 0 12.7329 0C11.7479 0 10.9222 0.68127 10.701 1.59832H8.28434C8.1273 1.59832 7.99928 1.72641 7.99928 1.88338V4.51002C7.99922 4.66699 8.12731 4.79508 8.28428 4.79508ZM23.4296 20.9323C20.9256 20.9323 18.8958 22.9622 18.8958 25.4661C18.8958 27.9701 20.9256 29.9999 23.4296 29.9999C25.9335 29.9999 27.9634 27.9701 27.9634 25.4661C27.9634 22.9622 25.9335 20.9323 23.4296 20.9323ZM20.4756 24.9472C20.6676 24.7552 20.979 24.7552 21.171 24.9472L22.6854 26.4616L25.6881 23.4288C25.8791 23.2368 26.1896 23.2359 26.3817 23.4269C26.5737 23.6179 26.5746 23.9284 26.3836 24.1204L23.0604 27.4768C23.052 27.4866 23.0432 27.4962 23.0338 27.5055C22.8418 27.6975 22.5305 27.6975 22.3384 27.5055L20.4756 25.6427C20.2835 25.4506 20.2835 25.1392 20.4756 24.9472ZM17.1814 5.70727H8.28428C7.62381 5.70727 7.08703 5.17049 7.08703 4.51002V3.1967H3.26561C2.58844 3.1967 2.03613 3.749 2.03613 4.42617V27.0492C2.03613 27.7264 2.58844 28.2787 3.26561 28.2787H18.6823C18.1932 27.4551 17.9121 26.4936 17.9121 25.4662C17.9121 22.419 20.3824 19.9488 23.4295 19.9488V4.42617C23.4295 3.749 22.8772 3.1967 22.2001 3.1967H18.3786V4.51002C18.3787 5.17049 17.8419 5.70727 17.1814 5.70727ZM6.01664 24.252V21.9774C6.01664 21.8081 6.15469 21.67 6.32402 21.67H8.59863C8.76791 21.67 8.90596 21.8081 8.90596 21.9774V24.252C8.90596 24.4213 8.76791 24.5594 8.59863 24.5594H6.32402C6.15475 24.5594 6.01664 24.4213 6.01664 24.252ZM12.1027 22.6536C11.8311 22.6536 11.6109 22.4334 11.6109 22.1619C11.6109 21.8903 11.8311 21.6701 12.1027 21.6701H16.3782C16.6498 21.6701 16.87 21.8903 16.87 22.1619C16.87 22.4334 16.6498 22.6536 16.3782 22.6536H12.1027ZM8.59863 11.4036H6.32402C6.15475 11.4036 6.01664 11.2656 6.01664 11.0963V8.8217C6.01664 8.65242 6.15469 8.51437 6.32402 8.51437H8.59863C8.76791 8.51437 8.90596 8.65242 8.90596 8.8217V11.0963C8.90602 11.2656 8.76791 11.4036 8.59863 11.4036ZM12.1027 17.9815C11.8311 17.9815 11.6109 17.7613 11.6109 17.4898C11.6109 17.2182 11.8311 16.998 12.1027 16.998H19.449C19.7206 16.998 19.9408 17.2182 19.9408 17.4898C19.9408 17.7613 19.7206 17.9815 19.449 17.9815H12.1027ZM12.1027 16.0758C11.8311 16.0758 11.6109 15.8556 11.6109 15.584C11.6109 15.3124 11.8311 15.0922 12.1027 15.0922H19.449C19.7206 15.0922 19.9408 15.3124 19.9408 15.584C19.9408 15.8556 19.7206 16.0758 19.449 16.0758H12.1027ZM12.1027 11.4036C11.8311 11.4036 11.6109 11.1834 11.6109 10.9119C11.6109 10.6403 11.8311 10.4201 12.1027 10.4201H19.449C19.7206 10.4201 19.9408 10.6403 19.9408 10.9119C19.9408 11.1834 19.7206 11.4036 19.449 11.4036H12.1027ZM12.1027 9.49793C11.8311 9.49793 11.6109 9.27773 11.6109 9.00615C11.6109 8.73457 11.8311 8.51437 12.1027 8.51437H19.449C19.7206 8.51437 19.9408 8.73457 19.9408 9.00615C19.9408 9.27773 19.7206 9.49793 19.449 9.49793H12.1027ZM12.1027 24.5594C11.8311 24.5594 11.6109 24.3392 11.6109 24.0676C11.6109 23.796 11.8311 23.5758 12.1027 23.5758H16.3782C16.6498 23.5758 16.87 23.796 16.87 24.0676C16.87 24.3392 16.6498 24.5594 16.3782 24.5594H12.1027Z" fill="#2C2738"/>
</g>
<defs>
<clipPath id="clip0_502_798">
<rect width="30" height="30" fill="white"/>
</clipPath>
</defs>
</svg>
