<svg width="21" height="21" viewBox="0 0 21 21" fill="none" xmlns="http://www.w3.org/2000/svg">
<path d="M18.3997 7.11505C18.6198 7.11505 18.8194 7.20422 18.9772 7.3549C19.1243 7.51582 19.1983 7.71569 19.1768 7.92684C19.1768 7.99654 18.5886 14.905 18.2527 17.8129C18.0423 19.5974 16.8037 20.6808 14.9457 20.7105C13.517 20.7402 12.1206 20.7505 10.7456 20.7505C9.28586 20.7505 7.8583 20.7402 6.47259 20.7105C4.67687 20.6705 3.43714 19.5676 3.23749 17.8129C2.89187 14.8947 2.31441 7.99654 2.30367 7.92684C2.29294 7.71569 2.36593 7.51582 2.51405 7.3549C2.66003 7.20422 2.87041 7.11505 3.09152 7.11505H18.3997ZM13.0202 0.250488C13.9959 0.250488 14.8674 0.882907 15.1197 1.7849L15.3 2.53314C15.446 3.14301 16.0148 3.57453 16.6696 3.57453H19.8875C20.3169 3.57453 20.6743 3.9056 20.6743 4.32687V4.71637C20.6743 5.12739 20.3169 5.46871 19.8875 5.46871H1.59644C1.16602 5.46871 0.808594 5.12739 0.808594 4.71637V4.32687C0.808594 3.9056 1.16602 3.57453 1.59644 3.57453H4.81436C5.46804 3.57453 6.03692 3.14301 6.18397 2.53417L6.35248 1.83512C6.61438 0.882907 7.47629 0.250488 8.4627 0.250488H13.0202Z" fill="#7A73FF"/>
</svg>
