<svg width="11" height="14" viewBox="0 0 11 14" fill="none" xmlns="http://www.w3.org/2000/svg">
<path d="M0 14H5.98145C9.12598 14 10.8008 12.3594 10.8008 10.1309C10.8008 8.05957 9.31738 6.80859 7.72461 6.7334V6.59668C9.18067 6.26855 10.2539 5.23633 10.2539 3.58887C10.2539 1.49023 8.69531 0 5.60547 0H0V14ZM2.95996 11.5801V7.86133H5.44141C6.86328 7.86133 7.74512 8.68164 7.74512 9.83691C7.74512 10.8896 7.02734 11.5801 5.37305 11.5801H2.95996ZM2.95996 5.8584V2.39258H5.20899C6.52149 2.39258 7.2666 3.06934 7.2666 4.08106C7.2666 5.18848 6.36426 5.8584 5.1543 5.8584H2.95996Z" fill="#2C2738"/>
</svg>
