<svg width="23" height="14" viewBox="0 0 23 14" fill="none" xmlns="http://www.w3.org/2000/svg">
<path d="M0.996145 1.09776H21.4876C21.6332 1.09776 21.7728 1.03993 21.8758 0.936996C21.9787 0.834061 22.0365 0.694451 22.0365 0.548879C22.0365 0.403307 21.9787 0.263698 21.8758 0.160763C21.7728 0.0578278 21.6332 0 21.4876 0H0.996145C0.850573 0 0.710964 0.0578278 0.608029 0.160763C0.505094 0.263698 0.447266 0.403307 0.447266 0.548879C0.447266 0.694451 0.505094 0.834061 0.608029 0.936996C0.710964 1.03993 0.850573 1.09776 0.996145 1.09776Z" fill="#2C2738"/>
<path d="M21.4872 4.2998H9.89849C9.75292 4.2998 9.61331 4.35763 9.51037 4.46057C9.40744 4.5635 9.34961 4.70311 9.34961 4.84868C9.34961 4.99426 9.40744 5.13387 9.51037 5.2368C9.61331 5.33974 9.75292 5.39756 9.89849 5.39756H21.4872C21.6327 5.39756 21.7723 5.33974 21.8753 5.2368C21.9782 5.13387 22.036 4.99426 22.036 4.84868C22.036 4.70311 21.9782 4.5635 21.8753 4.46057C21.7723 4.35763 21.6327 4.2998 21.4872 4.2998Z" fill="#2C2738"/>
<path d="M21.4872 8.60254H9.89849C9.75292 8.60254 9.61331 8.66037 9.51037 8.7633C9.40744 8.86624 9.34961 9.00585 9.34961 9.15142C9.34961 9.29699 9.40744 9.4366 9.51037 9.53953C9.61331 9.64247 9.75292 9.7003 9.89849 9.7003H21.4872C21.6327 9.7003 21.7723 9.64247 21.8753 9.53953C21.9782 9.4366 22.036 9.29699 22.036 9.15142C22.036 9.00585 21.9782 8.86624 21.8753 8.7633C21.7723 8.66037 21.6327 8.60254 21.4872 8.60254Z" fill="#2C2738"/>
<path d="M21.4876 12.9023H0.996145C0.850573 12.9023 0.710964 12.9602 0.608029 13.0631C0.505094 13.166 0.447266 13.3057 0.447266 13.4512C0.447266 13.5968 0.505094 13.7364 0.608029 13.8393C0.710964 13.9423 0.850573 14.0001 0.996145 14.0001H21.4876C21.6332 14.0001 21.7728 13.9423 21.8758 13.8393C21.9787 13.7364 22.0365 13.5968 22.0365 13.4512C22.0365 13.3057 21.9787 13.166 21.8758 13.0631C21.7728 12.9602 21.6332 12.9023 21.4876 12.9023Z" fill="#2C2738"/>
<path d="M4.65539 4.4386C4.46387 4.30223 4.2385 4.22122 4.00398 4.20444C3.76947 4.18766 3.53486 4.23576 3.32587 4.34347C3.11687 4.45117 2.94157 4.61433 2.81915 4.81507C2.69673 5.0158 2.63194 5.24635 2.63186 5.48147V8.60642C2.63047 8.84154 2.69439 9.07243 2.8165 9.27336C2.9386 9.4743 3.11411 9.63737 3.32345 9.74443C3.53405 9.85053 3.76985 9.89643 4.00487 9.87706C4.2399 9.85769 4.46501 9.7738 4.65539 9.63465L6.85091 8.07218C7.01708 7.95373 7.15253 7.79728 7.246 7.61588C7.33946 7.43448 7.38822 7.23337 7.38822 7.02931C7.38822 6.82524 7.33946 6.62413 7.246 6.44273C7.15253 6.26133 7.01708 6.10489 6.85091 5.98644L4.65539 4.4386ZM6.21421 7.19397L4.01869 8.75645C3.99126 8.77598 3.95897 8.78756 3.92537 8.78992C3.89178 8.79227 3.85819 8.78531 3.82829 8.7698C3.7984 8.75429 3.77337 8.73082 3.75596 8.702C3.73855 8.67317 3.72944 8.6401 3.72962 8.60642V5.46683C3.72858 5.43328 3.73738 5.40016 3.75493 5.37155C3.77249 5.34294 3.79803 5.32009 3.82842 5.30582C3.85399 5.2911 3.88306 5.28351 3.91258 5.28387C3.95054 5.28334 3.9877 5.29487 4.01869 5.3168L6.21421 6.87928C6.23767 6.89663 6.25673 6.91925 6.26986 6.9453C6.283 6.97136 6.28984 7.00013 6.28984 7.02931C6.28984 7.05849 6.283 7.08726 6.26986 7.11331C6.25673 7.13937 6.23767 7.16198 6.21421 7.17933V7.19397Z" fill="#2C2738"/>
</svg>
