<svg width="17" height="14" viewBox="0 0 17 14" fill="none" xmlns="http://www.w3.org/2000/svg">
<path d="M4.60263 1.33836C4.60263 1.12537 4.68724 0.921108 4.83784 0.770503C4.98845 0.619898 5.19271 0.53529 5.4057 0.53529H15.5779C15.7909 0.53529 15.9952 0.619898 16.1458 0.770503C16.2964 0.921108 16.381 1.12537 16.381 1.33836C16.381 1.55135 16.2964 1.75561 16.1458 1.90621C15.9952 2.05682 15.7909 2.14143 15.5779 2.14143H5.4057C5.19271 2.14143 4.98845 2.05682 4.83784 1.90621C4.68724 1.75561 4.60263 1.55135 4.60263 1.33836ZM5.4057 5.88908C5.19271 5.88908 4.98845 5.97369 4.83784 6.1243C4.68724 6.2749 4.60263 6.47917 4.60263 6.69215C4.60263 6.90514 4.68724 7.1094 4.83784 7.26001C4.98845 7.41061 5.19271 7.49522 5.4057 7.49522H15.5779C15.7909 7.49522 15.9952 7.41061 16.1458 7.26001C16.2964 7.1094 16.381 6.90514 16.381 6.69215C16.381 6.47917 16.2964 6.2749 16.1458 6.1243C15.9952 5.97369 15.7909 5.88908 15.5779 5.88908H5.4057ZM5.4057 11.2429C5.19271 11.2429 4.98845 11.3275 4.83784 11.4781C4.68724 11.6287 4.60263 11.833 4.60263 12.0459C4.60263 12.2589 4.68724 12.4632 4.83784 12.6138C4.98845 12.7644 5.19271 12.849 5.4057 12.849H15.5779C15.7909 12.849 15.9952 12.7644 16.1458 12.6138C16.2964 12.4632 16.381 12.2589 16.381 12.0459C16.381 11.833 16.2964 11.6287 16.1458 11.4781C15.9952 11.3275 15.7909 11.2429 15.5779 11.2429H5.4057Z" fill="#2C2738"/>
<path d="M2.27945 0H1.67493L0.921875 0.476787V1.04715L1.61849 0.610465H1.63631V3.04193H2.27945V0Z" fill="#2C2738"/>
<path d="M0.951585 8.1027H3.12015V7.5769H1.84278V7.5561L2.28688 7.1209C2.9122 6.55054 3.08004 6.26536 3.08004 5.91928C3.08004 5.392 2.6493 5.01918 1.99725 5.01918C1.35856 5.01918 0.920393 5.40091 0.921879 5.998H1.53234C1.53086 5.70688 1.71504 5.52865 1.99279 5.52865C2.26015 5.52865 2.45918 5.695 2.45918 5.96236C2.45918 6.20446 2.31065 6.37082 2.03438 6.63669L0.951585 7.63928V8.1027Z" fill="#2C2738"/>
<path d="M2.07597 14C2.75921 14 3.24788 13.6242 3.2464 13.1044C3.24788 12.7256 3.00726 12.4553 2.56018 12.3988V12.3751C2.90032 12.3142 3.135 12.0735 3.13351 11.7319C3.135 11.2522 2.71465 10.8749 2.08488 10.8749C1.46104 10.8749 0.991685 11.2403 0.982773 11.7661H1.59918C1.60661 11.5344 1.81901 11.3844 2.08191 11.3844C2.34184 11.3844 2.51562 11.5418 2.51413 11.7705C2.51562 12.0097 2.31213 12.1716 2.01952 12.1716H1.73583V12.6439H2.01952C2.36412 12.6439 2.57949 12.8162 2.578 13.0613C2.57949 13.3034 2.37154 13.4697 2.07745 13.4697C1.79376 13.4697 1.58136 13.3212 1.56947 13.0984H0.921875C0.932272 13.6302 1.40757 14 2.07597 14Z" fill="#2C2738"/>
</svg>
