<svg width="23" height="14" viewBox="0 0 23 14" fill="none" xmlns="http://www.w3.org/2000/svg">
<path d="M1.4063 1.09776H21.8978C22.0434 1.09776 22.183 1.03993 22.2859 0.936996C22.3889 0.834061 22.4467 0.694451 22.4467 0.548879C22.4467 0.403307 22.3889 0.263698 22.2859 0.160763C22.183 0.0578278 22.0434 0 21.8978 0H1.4063C1.26073 0 1.12112 0.0578278 1.01819 0.160763C0.91525 0.263698 0.857422 0.403307 0.857422 0.548879C0.857422 0.694451 0.91525 0.834061 1.01819 0.936996C1.12112 1.03993 1.26073 1.09776 1.4063 1.09776Z" fill="#2C2738"/>
<path d="M21.8973 4.2998H10.3086C10.1631 4.2998 10.0235 4.35763 9.92053 4.46057C9.81759 4.5635 9.75977 4.70311 9.75977 4.84868C9.75977 4.99426 9.81759 5.13387 9.92053 5.2368C10.0235 5.33974 10.1631 5.39756 10.3086 5.39756H21.8973C22.0429 5.39756 22.1825 5.33974 22.2854 5.2368C22.3884 5.13387 22.4462 4.99426 22.4462 4.84868C22.4462 4.70311 22.3884 4.5635 22.2854 4.46057C22.1825 4.35763 22.0429 4.2998 21.8973 4.2998Z" fill="#2C2738"/>
<path d="M21.8973 8.60254H10.3086C10.1631 8.60254 10.0235 8.66037 9.92053 8.7633C9.81759 8.86624 9.75977 9.00585 9.75977 9.15142C9.75977 9.29699 9.81759 9.4366 9.92053 9.53953C10.0235 9.64247 10.1631 9.7003 10.3086 9.7003H21.8973C22.0429 9.7003 22.1825 9.64247 22.2854 9.53953C22.3884 9.4366 22.4462 9.29699 22.4462 9.15142C22.4462 9.00585 22.3884 8.86624 22.2854 8.7633C22.1825 8.66037 22.0429 8.60254 21.8973 8.60254Z" fill="#2C2738"/>
<path d="M21.8978 12.9023H1.4063C1.26073 12.9023 1.12112 12.9602 1.01819 13.0631C0.91525 13.166 0.857422 13.3057 0.857422 13.4512C0.857422 13.5968 0.91525 13.7364 1.01819 13.8393C1.12112 13.9423 1.26073 14.0001 1.4063 14.0001H21.8978C22.0434 14.0001 22.183 13.9423 22.2859 13.8393C22.3889 13.7364 22.4467 13.5968 22.4467 13.4512C22.4467 13.3057 22.3889 13.166 22.2859 13.0631C22.183 12.9602 22.0434 12.9023 21.8978 12.9023Z" fill="#2C2738"/>
<path d="M4.2128 4.43882L2.01728 6.0013C1.84968 6.11873 1.71286 6.27482 1.61839 6.45636C1.52393 6.6379 1.47461 6.83952 1.47461 7.04417C1.47461 7.24881 1.52393 7.45044 1.61839 7.63197C1.71286 7.81351 1.84968 7.96961 2.01728 8.08704L4.2128 9.64952C4.42638 9.80237 4.682 9.88545 4.94464 9.88736C5.14831 9.88662 5.34893 9.83772 5.53011 9.74465C5.73986 9.63777 5.91588 9.47483 6.03861 9.27394C6.16135 9.07304 6.22599 8.84206 6.22535 8.60664V5.46705C6.22125 5.23498 6.15415 5.00839 6.03124 4.8115C5.90833 4.6146 5.73422 4.45482 5.52752 4.34921C5.32083 4.24361 5.08932 4.19617 4.85775 4.21195C4.62618 4.22773 4.40325 4.30615 4.2128 4.43882ZM5.13857 8.59201C5.13875 8.62568 5.12964 8.65876 5.11223 8.68758C5.09482 8.71641 5.06979 8.73987 5.0399 8.75539C5.01 8.7709 4.97641 8.77786 4.94282 8.7755C4.90922 8.77315 4.87693 8.76157 4.8495 8.74203L2.65398 7.17956C2.62918 7.16318 2.60884 7.1409 2.59478 7.11471C2.58073 7.08852 2.57341 7.05925 2.57348 7.02953C2.57332 7.00019 2.58022 6.97125 2.59359 6.94514C2.60696 6.91903 2.62642 6.89652 2.65032 6.8795L4.84584 5.31703C4.8757 5.2956 4.91154 5.28408 4.94829 5.28409C4.97889 5.28438 5.00898 5.2919 5.03611 5.30605C5.0665 5.32032 5.09204 5.34316 5.1096 5.37177C5.12715 5.40038 5.13595 5.4335 5.13491 5.46705L5.13857 8.59201Z" fill="#2C2738"/>
</svg>
