<svg width="16" height="14" viewBox="0 0 16 14" fill="none" xmlns="http://www.w3.org/2000/svg">
<path d="M0.642578 13.4464C0.642578 13.5932 0.700904 13.734 0.804724 13.8379C0.908544 13.9417 1.04935 14 1.19618 14H14.8517C14.9985 14 15.1393 13.9417 15.2431 13.8379C15.3469 13.734 15.4053 13.5932 15.4053 13.4464C15.4053 13.2996 15.3469 13.1588 15.2431 13.0549C15.1393 12.9511 14.9985 12.8928 14.8517 12.8928H9.50019L15.3241 7.06892C15.5135 6.88091 15.6639 6.65726 15.7666 6.41085C15.8692 6.16445 15.922 5.90017 15.922 5.63325C15.922 5.36632 15.8692 5.10204 15.7666 4.85564C15.6639 4.60923 15.5135 4.38558 15.3241 4.19757L11.7146 0.580716C11.328 0.208161 10.8121 0 10.2752 0C9.73837 0 9.22242 0.208161 8.83587 0.580716L1.24785 8.13183C1.05726 8.31997 0.905928 8.54408 0.802641 8.79116C0.699355 9.03825 0.646168 9.30339 0.646168 9.57119C0.646168 9.839 0.699355 10.1041 0.802641 10.3512C0.905928 10.5983 1.05726 10.8224 1.24785 11.0106L3.12271 12.8928H1.19618C1.04935 12.8928 0.908544 12.9511 0.804724 13.0549C0.700904 13.1588 0.642578 13.2996 0.642578 13.4464ZM9.59615 1.34838C9.68123 1.26268 9.78242 1.19466 9.8939 1.14824C10.0054 1.10183 10.1249 1.07793 10.2457 1.07793C10.3665 1.07793 10.486 1.10183 10.5975 1.14824C10.709 1.19466 10.8102 1.26268 10.8953 1.34838L14.5195 4.98C14.6063 5.0652 14.6753 5.16685 14.7224 5.27902C14.7694 5.39118 14.7937 5.5116 14.7937 5.63325C14.7937 5.75489 14.7694 5.87531 14.7224 5.98747C14.6753 6.09964 14.6063 6.20129 14.5195 6.2865L12.1722 8.63376L7.2415 3.66612L9.59615 1.34838ZM2.02289 10.206C1.93719 10.1209 1.86917 10.0197 1.82276 9.90823C1.77634 9.79675 1.75245 9.67719 1.75245 9.55643C1.75245 9.43567 1.77634 9.31611 1.82276 9.20463C1.86917 9.09315 1.93719 8.99195 2.02289 8.90687L6.4517 4.47807L11.3824 9.4088L7.9132 12.8928H4.68755L2.02289 10.206Z" fill="#2C2738"/>
</svg>
