<svg width="13" height="16" viewBox="0 0 13 16" fill="none" xmlns="http://www.w3.org/2000/svg">
<path d="M8.91641 13.5333C8.79433 13.5333 8.68043 13.4556 8.63954 13.3335L4.92693 2.19568L1.21432 13.3335C1.1635 13.4866 0.999363 13.5695 0.844573 13.5169C0.691536 13.4655 0.609761 13.3002 0.660578 13.1472L4.65064 1.17874C4.73008 0.940421 5.12553 0.940421 5.20438 1.17874L9.19445 13.1478C9.24527 13.302 9.16232 13.4661 9.00987 13.5175C8.97774 13.5286 8.9462 13.5333 8.91641 13.5333Z" fill="#2C2738" stroke="#2C2738" stroke-width="0.5"/>
<path d="M7.67797 10.3273H2.42096C2.26033 10.3273 2.12891 10.1959 2.12891 10.0352C2.12891 9.87459 2.26033 9.74316 2.42096 9.74316H7.67797C7.83918 9.74316 7.97002 9.87459 7.97002 10.0352C7.97002 10.1959 7.83918 10.3273 7.67797 10.3273Z" fill="#2C2738" stroke="#2C2738" stroke-width="0.5"/>
<path d="M12.3514 14.9998H10.7118C10.5927 14.9998 10.4852 14.9279 10.4408 14.817C10.3964 14.706 10.4239 14.5798 10.5097 14.4975C11.0302 13.998 11.7626 13.1184 11.7626 12.7258C11.7626 12.3275 11.5214 12.0822 11.2977 12.0822C11.1119 12.0822 10.8917 12.3649 10.8917 12.6049C10.8917 12.7656 10.7609 12.897 10.5997 12.897C10.439 12.897 10.3076 12.7656 10.3076 12.6049C10.3076 12.0927 10.7404 11.498 11.2977 11.498C11.8135 11.498 12.3468 11.9577 12.3468 12.7258C12.3468 13.244 11.8205 13.9396 11.397 14.4169H12.3514C12.5126 14.4169 12.6435 14.5471 12.6435 14.7089C12.6435 14.8701 12.5126 14.9998 12.3514 14.9998Z" fill="#2C2738" stroke="#2C2738" stroke-width="0.2"/>
</svg>
