<svg width="11" height="16" viewBox="0 0 11 16" fill="none" xmlns="http://www.w3.org/2000/svg">
<path d="M9.16417 15.0003C9.03404 15.0003 8.91262 14.9175 8.86904 14.7874L4.91151 2.91482L0.953987 14.7874C0.899817 14.9493 0.724232 15.039 0.559854 14.9829C0.396721 14.9281 0.309551 14.7519 0.363721 14.5888L4.617 1.83018C4.70168 1.57614 5.12321 1.57614 5.20727 1.83018L9.45993 14.5894C9.51472 14.7538 9.42631 14.9287 9.26379 14.9835C9.22955 14.9954 9.19593 15.0003 9.16417 15.0003Z" fill="#2C2738" stroke="#2C2738" stroke-width="0.5"/>
<path d="M7.84383 11.5826H2.24003C2.06881 11.5826 1.92871 11.4425 1.92871 11.2713C1.92871 11.1001 2.06881 10.96 2.24003 10.96H7.84383C8.01568 10.96 8.15515 11.1001 8.15515 11.2713C8.15515 11.4425 8.01568 11.5826 7.84383 11.5826Z" fill="#2C2738" stroke="#2C2738" stroke-width="0.5"/>
<path d="M10.3349 4.73337H8.58712C8.4601 4.73337 8.34553 4.65679 8.29821 4.53849C8.25089 4.42018 8.28016 4.28569 8.37169 4.1979C8.92646 3.66554 9.70726 2.72784 9.70726 2.30942C9.70726 1.88478 9.4501 1.62264 9.21163 1.62264C9.01363 1.62264 8.77889 1.92463 8.77889 2.18053C8.77889 2.35176 8.63942 2.49186 8.46757 2.49186C8.29634 2.49186 8.15625 2.35176 8.15625 2.18053C8.15625 1.63447 8.61763 1 9.21163 1C9.76143 1 10.3299 1.4894 10.3299 2.30942C10.3299 2.86171 9.7689 3.60328 9.31748 4.11135H10.3349C10.5067 4.11135 10.6462 4.25083 10.6462 4.42267C10.6462 4.59452 10.5067 4.73337 10.3349 4.73337Z" fill="#2C2738" stroke="#2C2738" stroke-width="0.2"/>
</svg>
