<svg width="19" height="14" viewBox="0 0 19 14" fill="none" xmlns="http://www.w3.org/2000/svg">
<path d="M1.78086 2.8C2.15216 2.8 2.50826 2.6525 2.77081 2.38995C3.03336 2.1274 3.18086 1.7713 3.18086 1.4C3.18086 1.0287 3.03336 0.672601 2.77081 0.410051C2.50826 0.1475 2.15216 0 1.78086 0C1.40956 0 1.05346 0.1475 0.79091 0.410051C0.528359 0.672601 0.380859 1.0287 0.380859 1.4C0.380859 1.7713 0.528359 2.1274 0.79091 2.38995C1.05346 2.6525 1.40956 2.8 1.78086 2.8ZM5.98086 1.4C5.98086 1.17722 6.06936 0.963561 6.22689 0.80603C6.38442 0.6485 6.59808 0.56 6.82086 0.56H17.4609C17.6836 0.56 17.8973 0.6485 18.0548 0.80603C18.2124 0.963561 18.3009 1.17722 18.3009 1.4C18.3009 1.62278 18.2124 1.83644 18.0548 1.99397C17.8973 2.1515 17.6836 2.24 17.4609 2.24H6.82086C6.59808 2.24 6.38442 2.1515 6.22689 1.99397C6.06936 1.83644 5.98086 1.62278 5.98086 1.4ZM6.82086 6.16C6.59808 6.16 6.38442 6.2485 6.22689 6.40603C6.06936 6.56356 5.98086 6.77722 5.98086 7C5.98086 7.22278 6.06936 7.43644 6.22689 7.59397C6.38442 7.7515 6.59808 7.84 6.82086 7.84H17.4609C17.6836 7.84 17.8973 7.7515 18.0548 7.59397C18.2124 7.43644 18.3009 7.22278 18.3009 7C18.3009 6.77722 18.2124 6.56356 18.0548 6.40603C17.8973 6.2485 17.6836 6.16 17.4609 6.16H6.82086ZM6.82086 11.76C6.59808 11.76 6.38442 11.8485 6.22689 12.006C6.06936 12.1636 5.98086 12.3772 5.98086 12.6C5.98086 12.8228 6.06936 13.0364 6.22689 13.194C6.38442 13.3515 6.59808 13.44 6.82086 13.44H17.4609C17.6836 13.44 17.8973 13.3515 18.0548 13.194C18.2124 13.0364 18.3009 12.8228 18.3009 12.6C18.3009 12.3772 18.2124 12.1636 18.0548 12.006C17.8973 11.8485 17.6836 11.76 17.4609 11.76H6.82086ZM3.18086 7C3.18086 7.3713 3.03336 7.7274 2.77081 7.98995C2.50826 8.2525 2.15216 8.4 1.78086 8.4C1.40956 8.4 1.05346 8.2525 0.79091 7.98995C0.528359 7.7274 0.380859 7.3713 0.380859 7C0.380859 6.6287 0.528359 6.2726 0.79091 6.01005C1.05346 5.7475 1.40956 5.6 1.78086 5.6C2.15216 5.6 2.50826 5.7475 2.77081 6.01005C3.03336 6.2726 3.18086 6.6287 3.18086 7ZM1.78086 14C2.15216 14 2.50826 13.8525 2.77081 13.59C3.03336 13.3274 3.18086 12.9713 3.18086 12.6C3.18086 12.2287 3.03336 11.8726 2.77081 11.6101C2.50826 11.3475 2.15216 11.2 1.78086 11.2C1.40956 11.2 1.05346 11.3475 0.79091 11.6101C0.528359 11.8726 0.380859 12.2287 0.380859 12.6C0.380859 12.9713 0.528359 13.3274 0.79091 13.59C1.05346 13.8525 1.40956 14 1.78086 14Z" fill="#2C2738"/>
</svg>
