<svg width="444" height="341" viewBox="0 0 444 341" fill="none" xmlns="http://www.w3.org/2000/svg">
<path d="M275.22 314.26H266.53V314.51H275.22V314.26Z" fill="#EBEBEB"/>
<path d="M248.99 268.37H269.15V253.75H248.99V268.37Z" fill="#E0E0E0"/>
<path d="M279.03 268.37H296.92V259.49H279.03V268.37Z" fill="#E0E0E0"/>
<path d="M262.82 271.55L263.35 273.3H270.53L271.07 271.55H280.55V290.96H249.08V271.55H262.82Z" fill="#E0E0E0"/>
<path d="M293.991 94.7797C293.991 91.7097 291.501 89.2197 288.431 89.2197C285.361 89.2197 282.871 91.7097 282.871 94.7797C282.871 97.8497 285.361 100.34 288.431 100.34C291.501 100.34 293.991 97.8497 293.991 94.7797Z" fill="#E0E0E0"/>
<path d="M289.751 104.549L305.811 94.7794L292.311 83.6494L289.751 104.549Z" fill="#F5F5F5"/>
<path d="M278.461 105.5H282.551V38.8H278.461V105.5Z" fill="#EBEBEB"/>
<path d="M76.9004 251.62L63.6804 213.52C63.6804 213.52 82.0204 227.11 81.8904 212.04C81.7704 196.97 73.5404 208.67 70.6804 203.11C67.8204 197.55 78.8104 197.6 74.9604 189.16C71.1004 180.72 60.1404 193.69 58.2104 186.21C56.2704 178.73 53.1904 174.93 45.2004 175.6C45.2004 175.6 40.8904 185.44 46.1704 192.55C51.4604 199.66 33.0904 193.96 34.9604 201.11C36.8304 208.26 42.9604 214.5 45.6604 209.47C48.3604 204.43 51.7904 214.08 47.1704 216.57C42.5504 219.05 53.2104 229.82 55.5404 224.18C57.8804 218.54 61.5404 213.51 61.5404 213.51L73.7204 254.28L76.8904 251.63L76.9004 251.62Z" fill="#EBEBEB"/>
<path d="M90.5303 251.96L105.43 227.59C105.43 227.59 90.6903 234.23 93.0503 223.82C95.4103 213.41 99.3403 222.75 102.16 219.33C104.98 215.91 97.3603 214.29 101.31 209.03C105.25 203.77 110.88 214.4 113.35 209.52C115.82 204.64 118.53 202.47 123.95 204.14C123.95 204.14 125.45 211.6 120.72 215.72C115.99 219.84 129.56 218.67 127.19 223.34C124.82 228.01 119.63 231.4 118.52 227.51C117.41 223.62 113.58 229.78 116.4 232.19C119.22 234.61 110.22 240.45 109.46 236.19C108.7 231.93 106.92 227.9 106.92 227.9L92.3303 254.27L90.5403 251.96H90.5303Z" fill="#E6E6E6"/>
<path d="M80.4907 252.19L87.3107 212.94C87.3107 212.94 71.6007 229.11 69.3207 214.4C67.0407 199.69 76.9307 209.79 78.8307 203.91C80.7307 198.03 70.0207 199.84 72.4407 190.99C74.8607 182.15 87.6107 193.05 88.3107 185.45C89.0107 177.85 91.4107 173.65 99.3007 173.04C99.3007 173.04 105.071 181.95 101.051 189.72C97.0307 197.49 114.031 189.02 113.351 196.29C112.671 203.56 107.681 210.62 104.251 206.14C100.811 201.66 99.0107 211.61 103.911 213.3C108.811 214.99 100.131 227.18 96.9607 222.05C93.7807 216.92 89.4107 212.6 89.4107 212.6L84.0207 254.28L80.5107 252.2L80.4907 252.19Z" fill="#F5F5F5"/>
<path d="M72.0411 296.32H95.4711C97.1111 296.32 98.4611 295.05 98.5611 293.41L101.041 253C101.151 251.22 99.7311 249.71 97.9511 249.71H69.5511C67.7611 249.71 66.3511 251.22 66.4611 253L68.9411 293.41C69.0411 295.05 70.4011 296.32 72.0311 296.32H72.0411Z" fill="#EBEBEB"/>
<path d="M66.7508 254.27H101.031C102.601 254.27 103.931 253.09 104.111 251.53C104.321 249.69 102.881 248.07 101.031 248.07H66.7508C64.9008 248.07 63.4608 249.68 63.6708 251.53C63.8508 253.09 65.1708 254.27 66.7508 254.27Z" fill="#F5F5F5"/>
<path d="M194 340.61C301.083 340.61 387.89 335.542 387.89 329.29C387.89 323.038 301.083 317.97 194 317.97C86.9179 317.97 0.110352 323.038 0.110352 329.29C0.110352 335.542 86.9179 340.61 194 340.61Z" fill="#E7EDFD"/>
<path d="M300.33 32.6799V314.15C300.33 316.62 298.34 318.54 295.87 318.54H144.62C142.35 318.54 140.64 316.78 140.64 314.51V32.3199C140.64 30.3499 142.08 28.6299 144.05 28.6299H179.96C181.08 28.6299 182.1 29.3599 182.52 30.4199L184.16 34.4699C184.58 35.5199 185.6 36.2399 186.72 36.2399H254.33C255.45 36.2399 256.47 35.5499 256.89 34.4999L258.53 30.4299C258.95 29.3699 259.97 28.6299 261.09 28.6299H296.43C298.6 28.6299 300.33 30.5099 300.33 32.6799Z" fill="#263238"/>
<path d="M300.339 47.3994H140.649V298.569H300.339V47.3994Z" fill="#554DEE"/>
<path opacity="0.7" d="M300.339 47.3994H140.649V298.569H300.339V47.3994Z" fill="white"/>
<path d="M197.789 81.2001C197.789 85.4601 196.689 89.4501 194.749 92.9201C194.609 93.1801 194.459 93.4201 194.309 93.6701C192.869 96.0501 191.049 98.1501 188.899 99.8901C188.859 99.9301 188.819 99.9601 188.779 99.9901C186.769 101.62 184.469 102.92 181.999 103.83C181.979 103.83 181.969 103.83 181.959 103.83C179.369 104.78 176.589 105.29 173.679 105.29C172.769 105.29 171.869 105.24 170.989 105.14C169.469 104.98 167.999 104.66 166.569 104.23C163.019 103.14 159.819 101.25 157.189 98.7601C157.189 98.7601 157.169 98.7601 157.159 98.7401C152.489 94.3501 149.569 88.1101 149.569 81.1901C149.569 67.8701 160.359 57.0801 173.679 57.0801C186.999 57.0801 197.789 67.8701 197.789 81.1901V81.2001Z" fill="#554DEE"/>
<path d="M194.749 92.92C194.609 93.18 194.459 93.42 194.309 93.67C188.709 93.48 182.939 94.36 177.939 95.52C177.329 95.66 176.719 95.81 176.139 95.96C175.729 96.06 175.319 96.18 174.919 96.28C173.389 96.69 171.959 97.12 170.669 97.53C170.469 97.6 170.279 97.65 170.099 97.72C169.959 97.76 169.819 97.81 169.689 97.85C168.199 98.34 166.929 98.8 165.949 99.17C164.509 99.71 163.679 100.07 163.679 100.07C163.679 100.07 163.139 99.41 162.379 98.15C162.359 98.11 162.339 98.08 162.309 98.05C160.139 94.4 156.339 86.01 158.119 74.08C160.109 60.73 171.189 61.58 175.119 62.32C175.979 62.47 176.509 62.63 176.509 62.63C176.509 62.63 188.899 65.56 189.359 73.28C189.419 74.24 189.549 75.28 189.739 76.36C190.819 82.67 193.769 90.47 194.739 92.92H194.749Z" fill="#263238"/>
<path d="M182 103.83C182 103.83 181.97 103.83 181.96 103.83C179.37 104.78 176.59 105.29 173.68 105.29C172.77 105.29 171.87 105.24 170.99 105.14C169.47 104.98 168 104.66 166.57 104.23L165.8 97.9397L165.43 94.9297L181.92 97.2697L181.94 98.6797L181.99 102.82V103.83H182Z" fill="#554DEE"/>
<path d="M188.779 99.9904C186.769 101.62 184.469 102.92 181.999 103.83C181.979 103.83 181.969 103.83 181.959 103.83C179.369 104.78 176.589 105.29 173.679 105.29C172.769 105.29 171.869 105.24 170.989 105.14C169.469 104.98 167.999 104.66 166.569 104.23C163.019 103.14 159.819 101.25 157.189 98.7603C157.189 98.7603 157.169 98.7604 157.159 98.7404C157.919 98.6304 158.689 98.5304 159.459 98.4404L159.649 98.4203C160.549 98.3203 161.469 98.2303 162.379 98.1503C163.449 98.0603 164.529 98.0003 165.609 97.9503C165.679 97.9503 165.729 97.9503 165.799 97.9503C166.229 97.9303 166.669 97.9203 167.109 97.9003C167.639 97.8803 168.169 97.8704 168.689 97.8604C169.009 97.8604 169.359 97.8604 169.689 97.8604H170.529C172.559 97.8604 174.589 97.9404 176.609 98.0804C177.299 98.1304 177.999 98.1804 178.679 98.2504C179.039 98.2904 179.399 98.3204 179.759 98.3504C180.279 98.4304 180.819 98.5004 181.349 98.6004C181.459 98.6004 181.579 98.6303 181.689 98.6503L181.939 98.6904H181.959C182.589 98.7904 183.209 98.9103 183.809 99.0103C184.099 99.0603 184.389 99.1203 184.679 99.1703C184.859 99.2103 185.039 99.2404 185.229 99.2704C185.419 99.3104 185.629 99.3504 185.819 99.3804C186.159 99.4504 186.479 99.5104 186.799 99.5804C187.039 99.6304 187.279 99.6804 187.499 99.7204C187.949 99.8204 188.369 99.9104 188.759 99.9904H188.779Z" fill="#263238"/>
<path d="M177.779 104.08C170.909 102.91 168.949 99.8703 168.949 99.8703C171.879 97.3303 171.529 93.3804 170.909 90.9004C170.579 89.5304 170.149 88.6104 170.149 88.6104L178.399 90.5104C178.129 91.8704 177.979 93.0304 177.929 94.0004C177.869 95.0704 177.929 95.9104 178.059 96.5804C178.519 99.0904 179.939 99.1803 179.939 99.1803C181.289 101.97 177.769 104.09 177.769 104.09L177.779 104.08Z" fill="#E4897B"/>
<path opacity="0.2" d="M177.939 93.9896C177.879 95.0596 177.939 95.8996 178.069 96.5696C174.789 95.9996 172.389 93.2496 170.909 90.8896C170.579 89.5196 170.149 88.5996 170.149 88.5996L178.399 90.4996C178.129 91.8596 177.979 93.0196 177.929 93.9896H177.939Z" fill="black"/>
<path d="M176.82 66.8701C184.63 67.2101 186.96 71.4901 187.19 79.5701C187.47 89.6601 184.94 96.7101 175.27 94.1401C162.14 90.6501 163.86 66.3201 176.83 66.8801L176.82 66.8701Z" fill="#E4897B"/>
<path d="M182.159 78.9102C182.159 78.9102 183.149 81.0002 184.289 82.2502C184.289 82.2502 183.579 83.2802 182.189 83.0402L182.149 78.9102H182.159Z" fill="#DE5753"/>
<path d="M177.559 72.6702C177.559 72.6702 175.379 72.2902 174.119 73.7102" stroke="#263238" stroke-width="0.72" stroke-linecap="round" stroke-linejoin="round"/>
<path d="M183.249 72.5901C183.249 72.5901 184.649 72.1401 186.329 73.3701" stroke="#263238" stroke-width="0.72" stroke-linecap="round" stroke-linejoin="round"/>
<path d="M167.72 79.6595C167.72 79.6595 171.65 73.3995 171.31 68.4195C171.31 68.4195 187.06 62.7595 187.15 78.4995C187.15 78.4995 189.26 64.6195 175.85 63.7295C162.46 62.8395 161.65 82.4795 168.33 88.6295C168.33 88.6295 165.29 83.5695 167.72 79.6495V79.6595Z" fill="#263238"/>
<path d="M168.93 81.3696C168.93 80.1096 167.73 77.9296 165.38 78.0796C162.95 78.2396 161.58 83.1596 167.55 84.6096C168.41 84.8196 168.93 83.9996 168.93 81.3696Z" fill="#E4897B"/>
<path d="M182.35 85.3404C181.72 86.1804 180.92 87.8204 180.92 87.8204C180.76 87.7704 180.6 87.7304 180.44 87.6804C178.25 87.0104 177.46 85.9804 177.25 85.0304C177.13 84.5104 177.2 84.0204 177.3 83.6404C177.41 83.1904 177.6 82.9004 177.6 82.9004C178.55 83.9504 180.54 84.7304 181.62 85.1004C182.07 85.2604 182.36 85.3404 182.36 85.3404H182.35Z" fill="#263238"/>
<path d="M181.61 85.1004L181.17 85.8204C179.11 85.1804 177.75 84.4604 177.3 83.6404C177.41 83.1904 177.6 82.9004 177.6 82.9004C178.55 83.9504 180.54 84.7304 181.62 85.1004H181.61Z" fill="white"/>
<path d="M180.44 87.6803C178.25 87.0103 177.46 85.9803 177.25 85.0303C177.99 85.2903 178.85 85.6803 179.53 86.2603C180.06 86.7003 180.31 87.2103 180.44 87.6803Z" fill="#DE5753"/>
<path d="M176.639 67.4499C176.639 67.4499 172.939 80.1599 164.859 79.6499C156.779 79.1399 169.959 63.4099 169.959 63.4099C169.959 63.4099 183.379 58.9899 189.589 66.2899C195.799 73.5799 187.149 78.5199 187.149 78.5199C187.149 78.5199 188.079 68.5899 176.639 67.4599V67.4499Z" fill="#263238"/>
<path d="M176.6 66.54C176.6 66.54 177.18 75.35 170.64 78.16" stroke="#263238" stroke-width="0.5" stroke-linecap="round" stroke-linejoin="round"/>
<path d="M177.559 78.4601C177.629 79.0601 177.359 79.5901 176.959 79.6401C176.559 79.6901 176.169 79.2401 176.099 78.6301C176.029 78.0301 176.299 77.5001 176.699 77.4501C177.099 77.4001 177.489 77.8501 177.559 78.4601Z" fill="#263238"/>
<path d="M176.529 77.5098L177.779 76.8398C177.779 76.8398 177.259 78.0198 176.529 77.5098Z" fill="#263238"/>
<path d="M185.049 77.4503C185.119 78.0503 184.849 78.5803 184.449 78.6303C184.049 78.6803 183.659 78.2303 183.589 77.6203C183.519 77.0203 183.789 76.4903 184.189 76.4403C184.589 76.3903 184.979 76.8403 185.049 77.4503Z" fill="#263238"/>
<path d="M184.029 76.4903L185.279 75.8203C185.279 75.8203 184.759 77.0003 184.029 76.4903Z" fill="#263238"/>
<path d="M188.9 99.88C188.9 99.88 188.82 99.95 188.78 99.98C186.77 101.61 184.47 102.91 182 103.82C181.98 103.82 181.97 103.82 181.96 103.82L181.99 103.11V102.83V102.8L180.68 100.15L181.35 98.57L181.92 97.25L182.5 98.5L188.9 99.86V99.88Z" fill="#554DEE"/>
<path opacity="0.6" d="M188.9 99.88C188.9 99.88 188.82 99.95 188.78 99.98C186.77 101.61 184.47 102.91 182 103.82C181.98 103.82 181.97 103.82 181.96 103.82L181.99 103.11V102.83V102.8L180.68 100.15L181.35 98.57L181.92 97.25L182.5 98.5L188.9 99.86V99.88Z" fill="white"/>
<path d="M173.869 99.9602L171.129 103.39L170.989 105.15C169.469 104.99 167.999 104.67 166.569 104.24C163.019 103.15 159.819 101.26 157.189 98.7702L159.459 98.4502L159.649 98.4302L164.459 97.7502L165.429 94.9502L170.329 97.8702L173.869 99.9802V99.9602Z" fill="#554DEE"/>
<path opacity="0.6" d="M173.859 99.9602L171.129 103.39L170.989 105.15C169.469 104.99 167.999 104.67 166.569 104.24C163.019 103.15 159.819 101.26 157.189 98.7702L159.649 98.4302L164.459 97.7602L165.429 94.9502L170.329 97.8702L173.869 99.9802L173.859 99.9602Z" fill="white"/>
<path d="M199.44 101.58C199.44 105.2 196.51 108.13 192.89 108.13C189.27 108.13 186.34 105.2 186.34 101.58C186.34 97.9603 189.27 95.0303 192.89 95.0303C196.51 95.0303 199.44 97.9603 199.44 101.58Z" fill="white"/>
<path d="M198.48 101.58C198.48 104.67 195.98 107.17 192.89 107.17C189.8 107.17 187.3 104.67 187.3 101.58C187.3 98.4902 189.8 95.9902 192.89 95.9902C195.98 95.9902 198.48 98.4902 198.48 101.58Z" fill="#263238"/>
<path d="M190.02 101.49L192.59 103.75L195.76 99.4004" stroke="white" stroke-miterlimit="10"/>
<path d="M212.59 72.3396H265.14C265.76 72.3396 266.26 71.8396 266.26 71.2196C266.26 70.5996 265.76 70.0996 265.14 70.0996H212.59C211.97 70.0996 211.47 70.5996 211.47 71.2196C211.47 71.8396 211.97 72.3396 212.59 72.3396Z" fill="#263238"/>
<path d="M277.1 76.5098H212.3C211.84 76.5098 211.47 76.8798 211.47 77.3398C211.47 77.7998 211.84 78.1698 212.3 78.1698H277.1C277.56 78.1698 277.93 77.7998 277.93 77.3398C277.93 76.8798 277.56 76.5098 277.1 76.5098Z" fill="#263238"/>
<path d="M258.09 81.25H212.3C211.84 81.25 211.47 81.62 211.47 82.08C211.47 82.54 211.84 82.91 212.3 82.91H258.09C258.55 82.91 258.92 82.54 258.92 82.08C258.92 81.62 258.55 81.25 258.09 81.25Z" fill="#263238"/>
<path d="M298.43 111.84H142.55V267.72H298.43V111.84Z" fill="#554DEE"/>
<g opacity="0.3">
<path opacity="0.7" d="M266.6 124.97H272.5L269.55 132.62L266.6 124.97Z" fill="white"/>
<path opacity="0.7" d="M285.61 163.04L287.4 168.66L279.22 168.17L285.61 163.04Z" fill="white"/>
<path d="M283.31 138.39L280.51 145.26L289.02 148.22V142.66L283.31 138.39Z" fill="white"/>
<path d="M172.97 123.12H177.3L172.97 128.79V123.12Z" fill="white"/>
<path d="M156.689 151.08L161.589 149.96L162.959 154.17L157.309 156.13L156.689 151.08Z" fill="white"/>
<path d="M206.269 128.79C207.324 128.79 208.179 127.935 208.179 126.88C208.179 125.825 207.324 124.97 206.269 124.97C205.215 124.97 204.359 125.825 204.359 126.88C204.359 127.935 205.215 128.79 206.269 128.79Z" fill="white"/>
<path d="M178.439 254.949C178.439 257.039 176.739 258.739 174.649 258.739C172.559 258.739 170.859 257.039 170.859 254.949C170.859 252.859 172.559 251.159 174.649 251.159C176.739 251.159 178.439 252.859 178.439 254.949Z" fill="white"/>
<path d="M160.189 222.029L161.589 224.399L154.819 227.299L153.279 225.719L160.189 222.029Z" fill="white"/>
<path d="M204.359 260.829L203.039 257.479H208.189L204.359 260.829Z" fill="white"/>
<path d="M259.069 257.48L259.469 253.75L266.529 255.61V261.06L259.069 257.48Z" fill="white"/>
<path d="M274.239 238.239H280.549L277.399 241.979L274.239 238.239Z" fill="white"/>
<path d="M284.62 199.87L283.31 207.78L284.76 209.1L286.12 199.87H284.62Z" fill="white"/>
<path d="M149.229 176.659L154.82 180.729L150.82 183.669L149.229 176.659Z" fill="white"/>
<path d="M174.029 144.53C174.377 144.53 174.659 144.247 174.659 143.9C174.659 143.552 174.377 143.27 174.029 143.27C173.681 143.27 173.399 143.552 173.399 143.9C173.399 144.247 173.681 144.53 174.029 144.53Z" fill="white"/>
<path d="M254.989 137.02C255.475 137.02 255.869 136.626 255.869 136.14C255.869 135.654 255.475 135.26 254.989 135.26C254.503 135.26 254.109 135.654 254.109 136.14C254.109 136.626 254.503 137.02 254.989 137.02Z" fill="white"/>
<path d="M231.369 256.76C231.369 257.15 231.049 257.47 230.659 257.47C230.269 257.47 229.949 257.15 229.949 256.76C229.949 256.37 230.269 256.05 230.659 256.05C231.049 256.05 231.369 256.37 231.369 256.76Z" fill="white"/>
<path d="M239.699 119.7L246.739 118.64V122.07L239.699 123.12V119.7Z" fill="white"/>
<path d="M286.119 123.119H288.429L287.269 125.959L286.119 123.119Z" fill="white"/>
<path d="M153.279 126.88H156.689L154.979 128.79L153.279 126.88Z" fill="white"/>
<path d="M282.55 260.83L282.22 254.27L287.27 256.05L282.55 260.83Z" fill="white"/>
<path d="M287.4 223.08L284.76 220.97V223.08L287.4 224.66V223.08Z" fill="white"/>
<path d="M152.019 201.979L154.979 204.49L153.499 206.729L149.579 203.579L152.019 201.979Z" fill="white"/>
<path d="M149.579 143.27H153.279L149.229 144.52L149.579 143.27Z" fill="white"/>
</g>
<path d="M214.07 137.27L220.76 130.99L227.38 137.34L235.42 132.91L240.26 140.71L249.15 138.42L251.89 147.18H261.07L261.56 156.34L270.45 158.62L268.63 167.62L276.68 172.03L272.69 180.3L279.38 186.58L273.46 193.59L278.38 201.33L270.9 206.65L273.74 215.38L265.17 218.67L265.76 227.83L256.64 228.89L254.93 237.9L245.83 236.66L241.93 244.97L233.43 241.5L227.58 248.58L220.21 243.11L212.79 248.51L207.01 241.37L198.48 244.76L194.66 236.41L185.55 237.57L183.93 228.54L174.82 227.39L175.49 218.24L166.96 214.86L169.88 206.16L162.45 200.77L167.45 193.08L161.59 186.01L168.35 179.79L164.44 171.49L172.53 167.15L170.8 158.14L179.71 155.95L180.28 146.78L189.46 146.88L192.29 138.15L201.16 140.52L206.07 132.77L214.07 137.27Z" fill="#554DEE"/>
<path opacity="0.4" d="M274.46 195.59L280.38 188.58L273.68 182.3L277.67 174.04L269.62 169.62L271.43 160.62L262.54 158.34L262.06 149.17H252.88L250.13 140.42L241.24 142.71L236.4 134.91L228.36 139.34L221.73 132.99L215.04 139.28L207.04 134.78L202.13 142.53L193.26 140.16L190.43 148.89L181.25 148.8L180.68 157.96L171.77 160.15L173.5 169.16L165.41 173.5L169.32 181.8L162.56 188.01L168.42 195.08L163.42 202.78L170.85 208.17L167.92 216.87L176.46 220.24L175.79 229.39L184.9 230.53L186.53 239.56L195.64 238.4L199.46 246.74L207.99 243.36L213.77 250.49L221.19 245.09L228.56 250.56L234.41 243.48L242.91 246.95L246.81 238.64L255.9 239.88L257.61 230.86L266.73 229.8L266.15 220.64L274.72 217.35L271.88 208.62L279.36 203.3L274.44 195.55L274.46 195.59ZM272.62 202.01L266.01 206.71L268.52 214.42L260.95 217.33L261.46 225.42L253.41 226.35L251.9 234.31L243.87 233.21L240.42 240.55L232.91 237.49L227.75 243.74L221.24 238.91L214.69 243.68L209.59 237.38L202.05 240.37L198.67 233L190.63 234.02L189.19 226.04L181.15 225.03L181.74 216.95L174.2 213.97L176.78 206.29L170.22 201.53L174.63 194.73L169.46 188.49L175.43 183L171.97 175.67L179.11 171.84L177.59 163.88L185.46 161.95L185.96 153.86L194.07 153.94L196.57 146.23L204.4 148.33L208.74 141.48L215.8 145.46L221.71 139.91L227.56 145.52L234.66 141.61L238.93 148.5L246.78 146.48L249.21 154.21H257.32L257.75 162.3L265.6 164.31L264 172.26L271.11 176.16L267.58 183.46L273.49 189.01L268.26 195.2L272.61 202.04L272.62 202.01Z" fill="black"/>
<path opacity="0.4" d="M214.07 137.27L220.76 130.99L227.38 137.34L235.42 132.91L240.26 140.71L249.15 138.42L251.89 147.18H261.07L261.56 156.34L270.45 158.62L268.63 167.62L276.68 172.03L272.69 180.3L279.38 186.58L273.46 193.59L278.38 201.33L270.9 206.65L273.74 215.38L265.17 218.67L265.76 227.83L256.64 228.89L254.93 237.9L245.83 236.66L241.93 244.97L233.43 241.5L227.58 248.58L220.21 243.11L212.79 248.51L207.01 241.37L198.48 244.76L194.66 236.41L185.55 237.57L183.93 228.54L174.82 227.39L175.49 218.24L166.96 214.86L169.88 206.16L162.45 200.77L167.45 193.08L161.59 186.01L168.35 179.79L164.44 171.49L172.53 167.15L170.8 158.14L179.71 155.95L180.28 146.78L189.46 146.88L192.29 138.15L201.16 140.52L206.07 132.77L214.07 137.27Z" fill="black"/>
<path d="M273.46 193.59L279.38 186.58L272.68 180.3L276.67 172.04L268.62 167.62L270.43 158.62L261.54 156.34L261.06 147.17H251.88L249.13 138.42L240.24 140.71L235.4 132.91L227.36 137.34L220.73 130.99L214.04 137.28L206.04 132.78L201.13 140.53L192.26 138.16L189.43 146.89L180.25 146.8L179.68 155.96L170.77 158.15L172.5 167.16L164.41 171.5L168.32 179.8L161.56 186.01L167.42 193.08L162.42 200.78L169.85 206.17L166.92 214.87L175.46 218.24L174.79 227.39L183.9 228.53L185.53 237.56L194.64 236.4L198.46 244.74L206.99 241.36L212.77 248.49L220.19 243.09L227.56 248.56L233.41 241.48L241.91 244.95L245.81 236.64L254.9 237.88L256.61 228.86L265.73 227.8L265.15 218.64L273.72 215.35L270.88 206.62L278.36 201.3L273.44 193.55L273.46 193.59ZM271.62 200.01L265.01 204.71L267.52 212.42L259.95 215.33L260.46 223.42L252.41 224.35L250.9 232.31L242.87 231.21L239.42 238.55L231.91 235.49L226.75 241.74L220.24 236.91L213.69 241.68L208.59 235.38L201.05 238.37L197.67 231L189.63 232.02L188.19 224.04L180.15 223.03L180.74 214.95L173.2 211.97L175.78 204.29L169.22 199.53L173.63 192.73L168.46 186.49L174.43 181L170.97 173.67L178.11 169.84L176.59 161.88L184.46 159.95L184.96 151.86L193.07 151.94L195.57 144.23L203.4 146.33L207.74 139.48L214.8 143.46L220.71 137.91L226.56 143.52L233.66 139.61L237.93 146.5L245.78 144.48L248.21 152.21H256.32L256.75 160.3L264.6 162.31L263 170.26L270.11 174.16L266.58 181.46L272.49 187.01L267.26 193.2L271.61 200.04L271.62 200.01Z" fill="#554DEE"/>
<path opacity="0.6" d="M273.46 193.59L279.38 186.58L272.68 180.3L276.67 172.04L268.62 167.62L270.43 158.62L261.54 156.34L261.06 147.17H251.88L249.13 138.42L240.24 140.71L235.4 132.91L227.36 137.34L220.73 130.99L214.04 137.28L206.04 132.78L201.13 140.53L192.26 138.16L189.43 146.89L180.25 146.8L179.68 155.96L170.77 158.15L172.5 167.16L164.41 171.5L168.32 179.8L161.56 186.01L167.42 193.08L162.42 200.78L169.85 206.17L166.92 214.87L175.46 218.24L174.79 227.39L183.9 228.53L185.53 237.56L194.64 236.4L198.46 244.74L206.99 241.36L212.77 248.49L220.19 243.09L227.56 248.56L233.41 241.48L241.91 244.95L245.81 236.64L254.9 237.88L256.61 228.86L265.73 227.8L265.15 218.64L273.72 215.35L270.88 206.62L278.36 201.3L273.44 193.55L273.46 193.59ZM271.62 200.01L265.01 204.71L267.52 212.42L259.95 215.33L260.46 223.42L252.41 224.35L250.9 232.31L242.87 231.21L239.42 238.55L231.91 235.49L226.75 241.74L220.24 236.91L213.69 241.68L208.59 235.38L201.05 238.37L197.67 231L189.63 232.02L188.19 224.04L180.15 223.03L180.74 214.95L173.2 211.97L175.78 204.29L169.22 199.53L173.63 192.73L168.46 186.49L174.43 181L170.97 173.67L178.11 169.84L176.59 161.88L184.46 159.95L184.96 151.86L193.07 151.94L195.57 144.23L203.4 146.33L207.74 139.48L214.8 143.46L220.71 137.91L226.56 143.52L233.66 139.61L237.93 146.5L245.78 144.48L248.21 152.21H256.32L256.75 160.3L264.6 162.31L263 170.26L270.11 174.16L266.58 181.46L272.49 187.01L267.26 193.2L271.61 200.04L271.62 200.01Z" fill="white"/>
<path opacity="0.4" d="M191.1 186.85C191.1 186.85 196.2 185.97 198.71 186.85C201.22 187.73 211.84 205.89 211.84 205.89C211.84 205.89 232.45 177.55 248.92 165.16C248.92 165.16 227.54 184.3 215.15 216.42C215.15 216.42 210.98 218.27 208.03 214.97C207.18 214.02 197.6 197.67 195.76 197.05C194.3 196.56 189.63 196.8 189.63 196.8L191.1 186.84V186.85Z" fill="black"/>
<path d="M190.1 185.85C190.1 185.85 195.2 184.97 197.71 185.85C200.22 186.73 210.84 204.89 210.84 204.89C210.84 204.89 231.45 176.55 247.92 164.16C247.92 164.16 226.54 183.3 214.15 215.42C214.15 215.42 209.98 217.27 207.03 213.97C206.18 213.02 196.6 196.67 194.76 196.05C193.3 195.56 188.63 195.8 188.63 195.8L190.1 185.84V185.85Z" fill="white"/>
<path d="M332.08 301.6C332.08 301.6 326.25 288.89 332.91 276.36C339.57 263.83 341.5 260.88 337.25 258.31C333.01 255.74 331.06 268.33 331.06 268.33C331.06 268.33 327.48 259.67 330.44 250.6C333.4 241.53 335.25 226.77 331.21 225.19C327.17 223.61 330.44 243.61 326.94 250.43C326.94 250.43 324 242.84 323.52 235.56C323.04 228.28 323.79 216.65 320.61 213.67C317.43 210.69 315.38 212.75 318.51 228.82C321.64 244.89 321.62 257.95 321.62 257.95C321.62 257.95 314.71 236.87 310.07 236.26C305.43 235.65 305.44 242.47 309.41 248.39C313.38 254.31 321.04 264.92 322.3 270.37C322.3 270.37 314.71 254.51 307.89 259.37C301.06 264.23 313.83 273.81 319.52 277.27C325.21 280.73 329.16 302.43 329.16 302.43L332.09 301.59L332.08 301.6Z" fill="#554DEE"/>
<path opacity="0.2" d="M332.08 301.6C332.08 301.6 326.25 288.89 332.91 276.36C339.57 263.83 341.5 260.88 337.25 258.31C333.01 255.74 331.06 268.33 331.06 268.33C331.06 268.33 327.48 259.67 330.44 250.6C333.4 241.53 335.25 226.77 331.21 225.19C327.17 223.61 330.44 243.61 326.94 250.43C326.94 250.43 324 242.84 323.52 235.56C323.04 228.28 323.79 216.65 320.61 213.67C317.43 210.69 315.38 212.75 318.51 228.82C321.64 244.89 321.62 257.95 321.62 257.95C321.62 257.95 314.71 236.87 310.07 236.26C305.43 235.65 305.44 242.47 309.41 248.39C313.38 254.31 321.04 264.92 322.3 270.37C322.3 270.37 314.71 254.51 307.89 259.37C301.06 264.23 313.83 273.81 319.52 277.27C325.21 280.73 329.16 302.43 329.16 302.43L332.09 301.59L332.08 301.6Z" fill="black"/>
<path d="M327.48 306.81C327.48 306.81 333.15 294.01 326.35 281.58C319.54 269.15 317.58 266.23 321.79 263.6C326 260.97 328.1 273.53 328.1 273.53C328.1 273.53 331.57 264.82 328.51 255.79C325.45 246.77 323.42 232.03 327.43 230.39C331.44 228.75 328.42 248.8 332 255.56C332 255.56 334.85 247.93 335.24 240.64C335.64 233.35 334.74 221.74 337.89 218.71C341.04 215.68 343.1 217.71 340.17 233.83C337.23 249.94 337.41 263 337.41 263C337.41 263 344.07 241.82 348.7 241.14C353.33 240.46 353.41 247.28 349.51 253.26C345.61 259.24 338.08 269.96 336.89 275.44C336.89 275.44 344.29 259.47 351.17 264.23C358.05 268.99 345.4 278.76 339.75 282.31C334.1 285.86 330.41 307.62 330.41 307.62L327.47 306.83L327.48 306.81Z" fill="#554DEE"/>
<path d="M353.64 297.69H306.78L310.57 331.23H349.85L353.64 297.69Z" fill="#263238"/>
<path d="M43.1498 308.48L71.9598 305.65V270.16H83.3799V305.64L112.31 308.48C115.18 308.76 117.37 311.18 117.37 314.06V318.39H38.0898V314.06C38.0898 311.17 40.2798 308.76 43.1498 308.48Z" fill="#263238"/>
<path opacity="0.1" d="M43.1498 308.48L71.9598 305.65V270.16H83.3799V305.64L112.31 308.48C115.18 308.76 117.37 311.18 117.37 314.06V318.39H38.0898V314.06C38.0898 311.17 40.2798 308.76 43.1498 308.48Z" fill="white"/>
<path d="M115.539 331.126C119.611 330.465 122.376 326.628 121.715 322.556C121.054 318.484 117.217 315.718 113.145 316.379C109.073 317.04 106.307 320.877 106.968 324.95C107.629 329.022 111.466 331.787 115.539 331.126Z" fill="#263238"/>
<path d="M48.522 324.973C49.183 320.901 46.4177 317.064 42.3454 316.403C38.2731 315.742 34.436 318.507 33.775 322.58C33.114 326.652 35.8794 330.489 39.9516 331.15C44.0239 331.811 47.861 329.046 48.522 324.973Z" fill="#263238"/>
<path d="M81.2206 278.86H74.1306C71.8506 278.86 70.0006 277.01 70.0006 274.73V242.8H85.3506V274.73C85.3506 277.01 83.5006 278.86 81.2206 278.86Z" fill="#263238"/>
<path opacity="0.2" d="M81.2206 278.86H74.1306C71.8506 278.86 70.0006 277.01 70.0006 274.73V242.8H85.3506V274.73C85.3506 277.01 83.5006 278.86 81.2206 278.86Z" fill="white"/>
<path d="M37.8 180.19C37.8 180.19 46.36 233.6 63.24 242.8H46.08C46.08 242.8 29.13 224.6 23.96 180.19H37.81H37.8Z" fill="#263238"/>
<path opacity="0.1" d="M37.8 180.19C37.8 180.19 46.36 233.6 63.24 242.8H46.08C46.08 242.8 29.13 224.6 23.96 180.19H37.81H37.8Z" fill="white"/>
<path d="M45.2305 235.25H112.15C114.91 235.25 117.15 237.49 117.15 240.25V246.94H40.2305V240.25C40.2305 237.49 42.4705 235.25 45.2305 235.25Z" fill="#554DEE"/>
<path d="M118.341 241.09H39.0305C37.9204 241.09 37.0205 241.99 37.0205 243.1V244.92C37.0205 246.03 37.9204 246.93 39.0305 246.93H118.341C119.451 246.93 120.351 246.03 120.351 244.92V243.1C120.351 241.99 119.451 241.09 118.341 241.09Z" fill="#263238"/>
<path opacity="0.6" d="M118.341 241.09H39.0305C37.9204 241.09 37.0205 241.99 37.0205 243.1V244.92C37.0205 246.03 37.9204 246.93 39.0305 246.93H118.341C119.451 246.93 120.351 246.03 120.351 244.92V243.1C120.351 241.99 119.451 241.09 118.341 241.09Z" fill="white"/>
<path d="M21.9202 191.04H49.4102C57.4602 191.04 62.7002 184.58 61.1002 176.61L58.9602 165.97C57.3602 158 49.5302 151.54 41.4802 151.54H13.9902C5.9402 151.54 0.700203 158 2.3002 165.97L4.4402 176.61C6.0402 184.58 13.8702 191.04 21.9202 191.04Z" fill="#554DEE"/>
<path d="M47.8105 138.391H65.3306L66.9406 148.841L51.3605 151.561L47.8105 138.391Z" fill="#554DEE"/>
<path d="M164.15 283.551L157.86 286.011L153.34 277.491L149.23 269.741L156.2 265.561L160.41 275.081L164.15 283.551Z" fill="#E4897B"/>
<path opacity="0.2" d="M160.41 275.081L153.34 277.491L149.23 269.741L156.2 265.561L160.41 275.081Z" fill="black"/>
<path d="M159.11 270.431L150.55 275.021C150.55 275.021 118.22 218.181 113.25 218.651C108.28 219.121 61.1199 249.181 46.7399 238.081C32.3599 226.991 46.3499 193.561 46.3499 193.561C46.3499 193.561 74.4499 182.881 77.6799 189.421C78.3099 190.681 80.7999 195.401 81.4599 197.571C82.0899 199.621 82.5699 201.351 82.5699 201.351C82.5699 201.351 82.5699 201.351 82.5899 201.341C83.4999 200.971 112.88 188.921 126 195.381C139.33 201.951 159.11 270.431 159.11 270.431Z" fill="#14336D"/>
<path d="M112.63 316.78L105.92 316.01L105.89 306.54L105.88 297.86L113.99 297.48L113.27 307.7L112.63 316.78Z" fill="#E4897B"/>
<path opacity="0.2" d="M113.25 307.901L105.87 306.731V297.951L113.98 297.521L113.25 307.901Z" fill="black"/>
<path d="M146.37 272.2L158.89 265.93L160.19 271.23L150.71 276.12L146.37 272.2Z" fill="#263238"/>
<path d="M68.9602 238.17C68.9602 238.17 71.0202 237.94 102.65 232.08C102.65 232.08 103.36 272.53 104.86 302.67L114.6 302.98C114.6 302.98 128.57 236.06 126.93 225.96C125.29 215.86 113.26 214.49 113.26 214.49C113.26 214.49 92.3802 230.71 68.9502 238.16L68.9602 238.17Z" fill="#7A73FF"/>
<path opacity="0.4" d="M68.9602 238.17C68.9602 238.17 71.0202 237.94 102.65 232.08C102.65 232.08 103.36 272.53 104.86 302.67L114.6 302.98C114.6 302.98 128.57 236.06 126.93 225.96C125.29 215.86 113.26 214.49 113.26 214.49C113.26 214.49 92.3802 230.71 68.9502 238.16L68.9602 238.17Z" fill="white"/>
<path opacity="0.3" d="M68.9602 238.17C68.9602 238.17 71.0202 237.94 102.65 232.08C102.65 232.08 103.36 272.53 104.86 302.67L114.6 302.98C114.6 302.98 128.57 236.06 126.93 225.96C125.29 215.86 113.26 214.49 113.26 214.49C113.26 214.49 92.3802 230.71 68.9502 238.16L68.9602 238.17Z" fill="black"/>
<path d="M103.07 299.98L116.35 299.67L114.54 305.14L103.76 305.24L103.07 299.98Z" fill="#263238"/>
<path opacity="0.3" d="M82.5701 201.35L65.3301 207.49C65.3301 207.49 74.3901 200.72 81.4601 197.58C82.0901 199.63 82.5701 201.36 82.5701 201.36V201.35Z" fill="black"/>
<path d="M45.2402 191.17L44.9902 196.29L77.3002 189.44L76.5502 183.78L45.2402 191.17Z" fill="#263238"/>
<path opacity="0.2" d="M45.2402 191.17L44.9902 196.29L77.3002 189.44L76.5502 183.78L45.2402 191.17Z" fill="black"/>
<path d="M55.0558 188.03L53.4434 188.329L54.9628 196.519L56.5753 196.22L55.0558 188.03Z" fill="#554DEE"/>
<path d="M69.1576 185.953L62.1045 187.542L63.3093 192.888L70.3624 191.298L69.1576 185.953Z" fill="white"/>
<path d="M74.6887 183.205L73.0762 183.504L74.5942 191.694L76.2067 191.396L74.6887 183.205Z" fill="#554DEE"/>
<path opacity="0.3" d="M55.0558 188.03L53.4434 188.329L54.9628 196.519L56.5753 196.22L55.0558 188.03Z" fill="white"/>
<path opacity="0.3" d="M74.6887 183.205L73.0762 183.504L74.5942 191.694L76.2067 191.396L74.6887 183.205Z" fill="white"/>
<path d="M176.651 294.701C175.601 294.381 174.501 294.261 173.401 294.331C173.401 294.331 169.341 292.641 164.441 284.561L160.251 285.111C158.801 285.331 157.651 286.421 157.351 287.861C157.311 288.061 157.291 288.261 157.311 288.461C157.491 289.471 157.741 290.461 158.051 291.431C158.861 294.511 161.851 300.941 161.851 300.941L162.531 300.661L160.381 294.591C159.661 292.531 162.171 294.271 163.501 296.271C164.831 298.271 166.711 300.201 171.191 298.511C176.401 296.511 178.471 295.441 176.651 294.701Z" fill="#554DEE"/>
<path d="M163.38 282.42C163.38 282.42 170.11 292.64 173.41 294.34C173.41 294.34 169.71 297.3 164.77 292.52C158.39 286.34 157.32 288.46 157.32 288.46C157.32 288.46 157.22 286.06 157.49 284.84C158 282.49 163.38 282.42 163.38 282.42Z" fill="#E4897B"/>
<path d="M122.67 328.67C121.72 328.11 120.68 327.73 119.6 327.54C119.6 327.54 116.06 324.93 113.21 315.92L109.01 315.46C107.55 315.33 106.17 316.12 105.54 317.44C105.45 317.62 105.39 317.81 105.36 318.01C105.3 319.03 105.3 320.05 105.37 321.07C105.42 324.25 106.81 331.21 106.81 331.21L107.54 331.1L106.89 324.7C106.68 322.52 108.71 324.81 109.52 327.07C110.34 329.33 111.71 331.65 116.46 331.07C122 330.36 124.26 329.81 122.66 328.66L122.67 328.67Z" fill="#554DEE"/>
<path d="M112.68 313.601C112.68 313.601 116.79 325.121 119.6 327.551C119.6 327.551 115.3 329.551 111.64 323.741C106.9 316.221 105.37 318.031 105.37 318.031C105.37 318.031 105.85 315.671 106.39 314.551C107.44 312.391 112.69 313.601 112.69 313.601H112.68Z" fill="#E4897B"/>
<path d="M63.2704 103.03C63.2704 103.03 47.4804 95.3602 42.2604 111.87C37.0404 128.39 43.7304 139.8 43.7304 139.8C43.7304 139.8 62.0004 135.12 77.3804 138.39C77.3804 138.39 74.0604 124.31 74.8504 116.23C75.6504 108.14 63.2604 103.04 63.2604 103.04L63.2704 103.03Z" fill="#263238"/>
<path d="M75.5898 140.43C79.0598 140.59 93.5999 160.11 93.5999 160.11L98.9998 153.09C98.9998 153.09 107.32 169.26 103.21 176.96C99.0899 184.66 77.3898 163.61 77.3898 163.61L75.5898 140.42V140.43Z" fill="#554DEE"/>
<path opacity="0.6" d="M75.5801 140.439L77.0101 156.009L77.3801 163.619C77.3801 163.619 80.9501 167.079 85.4601 170.669C92.0801 175.959 100.75 181.539 103.2 176.969C107.32 169.279 98.9901 153.099 98.9901 153.099L93.5901 160.119L93.5501 160.069C92.7301 158.889 78.9301 140.589 75.5801 140.439Z" fill="white"/>
<path opacity="0.2" d="M77.0205 156.011L77.3905 163.621C77.3905 163.621 80.9605 167.081 85.4705 170.671C85.9005 161.531 77.3905 148.221 77.3905 148.221L77.0205 156.011Z" fill="black"/>
<path opacity="0.2" d="M93.6004 160.12L92.8204 161.61L95.0803 170.42C95.0803 170.42 88.8404 164.74 92.8204 159.17L93.6004 160.12Z" fill="black"/>
<path d="M77.4098 157.86C77.4098 158.1 77.4098 158.35 77.3998 158.6C77.3798 159.68 77.3598 160.82 77.3298 162.03C77.3298 162.13 77.3298 162.23 77.3198 162.34C77.2998 162.99 77.2898 163.66 77.2698 164.35C77.2698 164.47 77.2598 164.58 77.2598 164.7C77.2198 165.67 77.1898 166.68 77.1498 167.74C77.1498 167.88 77.1498 168.02 77.1298 168.16C77.0798 169.52 77.0198 170.95 76.9498 172.46C76.7898 175.85 76.5998 179.61 76.3598 183.78L75.9098 183.9L45.3598 191.14L45.2398 191.17C45.2398 191.17 46.4698 174.83 44.3598 165.58C44.3398 165.5 44.3298 165.42 44.2998 165.34C44.2698 165.2 44.2398 165.06 44.1998 164.92C44.1298 164.66 44.0598 164.4 43.9998 164.13C43.9298 163.86 43.8598 163.59 43.7798 163.31C43.5098 162.32 43.2198 161.29 42.9098 160.21C42.7098 159.49 42.4898 158.75 42.2598 157.99C42.2198 157.86 42.1798 157.74 42.1398 157.61C41.8698 156.71 41.5798 155.78 41.2798 154.82C41.1898 154.54 41.1098 154.27 41.0198 153.98C40.5798 152.61 40.1098 151.16 39.5998 149.64C39.0398 147.93 38.4298 146.11 37.7598 144.19C41.2698 143.07 44.8298 142.18 48.4498 141.51C48.9598 141.41 49.4798 141.32 49.9998 141.23C50.5498 141.13 51.0998 141.04 51.6398 140.96C54.3798 140.52 57.1498 140.21 59.9198 140.01C61.0298 139.93 62.1398 139.87 63.2498 139.83C63.9198 139.83 64.6098 139.83 65.2998 139.85H65.5798C66.2498 139.87 66.9098 139.89 67.5598 139.91C67.8698 139.92 68.1798 139.94 68.4898 139.95C68.6898 139.96 68.8798 139.97 69.0798 139.98C69.2898 139.98 69.5098 140 69.7198 140.01C70.0798 140.03 70.4198 140.05 70.7598 140.07C71.0198 140.09 71.2698 140.1 71.5198 140.12C72.0098 140.15 72.4698 140.18 72.8898 140.21C73.0798 140.23 73.2598 140.24 73.4298 140.26C73.5998 140.27 73.7598 140.28 73.9098 140.29C74.0698 140.31 74.2098 140.32 74.3498 140.33C74.4798 140.34 74.5998 140.35 74.7098 140.36C75.2098 140.4 75.5198 140.43 75.5798 140.44C75.5798 140.44 75.6098 140.44 75.6598 140.5L75.7298 140.57C75.7798 140.63 75.8398 140.71 75.8998 140.83C76.0798 141.16 76.3098 141.77 76.5498 142.88C76.5898 143.08 76.6298 143.3 76.6798 143.54C76.7398 143.89 76.7998 144.29 76.8698 144.73C76.9198 145.04 76.9598 145.37 76.9998 145.73C77.0298 146.05 77.0698 146.38 77.0998 146.74C77.3398 149.31 77.4598 152.85 77.3998 157.86H77.4098Z" fill="#263238"/>
<path d="M60.8204 146.36C53.5504 145.43 51.3604 142.32 51.3604 142.32C54.3304 139.52 53.7903 135.38 53.0303 132.8C52.6203 131.37 52.1303 130.42 52.1303 130.42L60.8904 132.06C60.6604 133.51 60.5604 134.72 60.5504 135.75C60.5304 136.88 60.6304 137.76 60.8004 138.46C61.3904 141.08 62.8904 141.11 62.8904 141.11C64.4304 143.98 60.8204 146.36 60.8204 146.36Z" fill="#E4897B"/>
<path opacity="0.2" d="M60.5499 135.74C60.5299 136.87 60.6299 137.75 60.7999 138.45C57.3199 137.99 54.6899 135.21 53.0299 132.8C52.6199 131.37 52.1299 130.42 52.1299 130.42L60.8899 132.06C60.6599 133.51 60.5599 134.72 60.5499 135.75V135.74Z" fill="black"/>
<path d="M62.8807 107.49C70.9407 109.13 72.6507 113.98 71.5507 122.4C70.1707 132.93 66.3707 139.83 56.7407 135.56C43.6707 129.76 49.5007 104.76 62.8807 107.49Z" fill="#E4897B"/>
<path d="M66.4303 120.88C66.4303 120.88 67.1203 123.21 68.0903 124.7C68.0903 124.7 67.1803 125.66 65.7803 125.18L66.4303 120.88Z" fill="#DE5753"/>
<path d="M62.6902 113.64C62.6902 113.64 60.4902 112.88 58.9502 114.15" stroke="#263238" stroke-width="0.72" stroke-linecap="round" stroke-linejoin="round"/>
<path d="M68.6201 114.49C68.6201 114.49 70.1501 114.25 71.7001 115.81" stroke="#263238" stroke-width="0.72" stroke-linecap="round" stroke-linejoin="round"/>
<path d="M51.31 119.27C51.31 119.27 56.43 113.42 56.9 108.19C56.9 108.19 74.2 104.93 71.68 121.29C71.68 121.29 76.18 107.22 62.39 104.07C48.63 100.93 44.53 121.2 50.45 128.69C50.45 128.69 48.13 122.92 51.31 119.26V119.27Z" fill="#263238"/>
<path d="M52.2803 121.24C52.4903 119.93 51.6003 117.46 49.1303 117.23C46.5803 116.99 44.3403 121.88 50.3003 124.38C51.1503 124.74 51.8403 123.97 52.2803 121.24Z" fill="#E4897B"/>
<path d="M65.5607 127.6C64.7707 128.36 63.6707 129.94 63.6707 129.94C63.5107 129.87 63.3507 129.79 63.1907 129.71C61.0307 128.65 60.3807 127.45 60.3107 126.43C60.2807 125.87 60.4207 125.37 60.5907 124.99C60.7807 124.54 61.0207 124.27 61.0207 124.27C61.8307 125.52 63.7707 126.66 64.8307 127.23C65.2707 127.47 65.5607 127.6 65.5607 127.6Z" fill="#263238"/>
<path d="M64.8308 127.229L64.2508 127.909C62.2208 126.909 60.9208 125.929 60.5908 124.999C60.7808 124.549 61.0208 124.279 61.0208 124.279C61.8308 125.529 63.7708 126.669 64.8308 127.239V127.229Z" fill="white"/>
<path d="M63.1906 129.71C61.0306 128.65 60.3805 127.45 60.3105 126.43C61.0305 126.82 61.8606 127.37 62.4706 128.08C62.9406 128.62 63.1305 129.19 63.1805 129.71H63.1906Z" fill="#DE5753"/>
<path d="M62.5903 108.06C62.5903 108.06 56.6403 120.65 48.3303 118.78C40.0203 116.91 56.3203 102.75 56.3203 102.75C56.3203 102.75 70.9903 100.39 76.2403 109C81.4803 117.61 71.6803 121.3 71.6803 121.3C71.6803 121.3 74.2903 111.14 62.6003 108.07L62.5903 108.06Z" fill="#263238"/>
<path d="M62.6998 107.1C62.6998 107.1 61.8398 116.35 54.5898 118.18" stroke="#263238" stroke-width="0.5" stroke-linecap="round" stroke-linejoin="round"/>
<path d="M61.7198 119.66C61.6898 120.3 61.3298 120.8 60.8998 120.79C60.4698 120.78 60.1498 120.24 60.1698 119.6C60.1898 118.96 60.5598 118.46 60.9898 118.47C61.4198 118.49 61.7398 119.02 61.7198 119.66Z" fill="#263238"/>
<path d="M60.8203 118.49L62.2303 118C62.2303 118 61.4903 119.14 60.8203 118.49Z" fill="#263238"/>
<path d="M69.6798 119.84C69.6498 120.48 69.2898 120.98 68.8598 120.97C68.4298 120.95 68.1098 120.42 68.1298 119.78C68.1598 119.14 68.5198 118.64 68.9498 118.65C69.3798 118.67 69.6998 119.2 69.6798 119.84Z" fill="#263238"/>
<path d="M68.7695 118.679L70.1795 118.189C70.1795 118.189 69.4395 119.329 68.7695 118.679Z" fill="#263238"/>
<path d="M80.8799 153.33C80.8299 153.79 81.1699 154.17 81.6399 154.17H89.9999C90.4699 154.17 90.8899 153.79 90.9499 153.33L92.8199 136.83C92.8699 136.37 92.5299 135.88 92.0599 135.88H83.6999C83.2299 135.88 82.8099 136.37 82.7499 136.83L80.8799 153.33Z" fill="#263238"/>
<path opacity="0.5" d="M83.6797 136.72L81.7897 153.38C81.7397 153.85 81.9797 154.17 82.4497 154.17H89.5397C90.0197 154.17 90.8897 153.91 90.9397 153.44L92.8297 136.72C92.8797 136.25 92.0697 135.87 91.5997 135.87H84.5097C84.0397 135.87 83.7397 136.25 83.6897 136.72H83.6797Z" fill="white"/>
<path d="M98.3998 154.7L94.0398 147.3C94.0398 147.3 94.0498 143.41 93.6698 142.5C93.2898 141.59 89.0198 139.52 88.1798 139.83C87.3398 140.14 87.0398 147.77 87.7998 148.79C88.5598 149.82 91.2298 150.96 91.2298 150.96L91.0498 152.41L93.5998 160.11L98.3998 154.7Z" fill="#E4897B"/>
<path d="M100.15 153.87L98.6998 152.42L91.8398 160.12L92.8199 163.17L100.15 153.87Z" fill="#554DEE"/>
<path d="M65.33 138.391L64.46 141.591L66.23 144.191L70.15 180.751L80.87 179.171C80.13 150.681 79.82 150.531 75.74 140.281L66.12 139.611L65.33 138.391Z" fill="#554DEE"/>
<path opacity="0.6" d="M65.33 138.391L64.46 141.591L66.23 144.191L70.15 180.751L80.87 179.171C80.13 150.681 79.82 150.531 75.74 140.281L66.12 139.611L65.33 138.391Z" fill="white"/>
<path d="M47.8106 138.391L57.3406 142.381L55.0006 146.361L57.3106 183.791L42.8706 188.011C42.8706 188.011 32.3906 160.511 37.7606 144.191L47.2206 141.461L47.8106 138.391Z" fill="#554DEE"/>
<path opacity="0.6" d="M56.9402 177.861L57.3102 183.791L50.8702 185.671L42.8702 188.011C42.8702 188.011 38.2302 175.831 36.7102 162.871C35.9402 156.361 35.9602 149.651 37.7602 144.191L47.2202 141.461L47.8102 138.391L57.3402 142.381L55.0002 146.361L55.9202 161.221L56.9402 177.861Z" fill="white"/>
<path opacity="0.2" d="M65.39 166.171C65.39 166.171 61.8 171.401 56.94 177.861C55.06 180.361 52.99 183.041 50.87 185.671L42.87 188.011C42.87 188.011 38.23 175.831 36.71 162.871C40.63 158.941 45.43 154.181 45.43 154.181C45.43 154.181 47.63 160.981 46.66 166.891L55.92 161.221L58.8 159.461L65.39 166.171Z" fill="black"/>
<path d="M57.5705 161.94L67.4806 154.17C67.4806 154.17 68.9806 150 69.5806 149.27C70.1806 148.55 78.8705 145.34 79.5905 145.25C80.3105 145.16 79.6305 152.37 78.5005 153.59C77.3706 154.81 70.4205 157.23 70.4205 157.23L60.0406 167L57.5605 161.93L57.5705 161.94Z" fill="#E4897B"/>
<path d="M37.7602 144.19C31.9402 147.11 29.3502 179.97 39.4602 185.64C49.5602 191.31 64.6602 165.67 64.6602 165.67L58.7902 159.45C58.7902 159.45 46.4902 169.75 45.0002 168.8C43.5202 167.85 45.2002 157.79 45.2002 157.79C45.2002 157.79 46.9302 154.74 43.2902 149.96C39.6502 145.17 37.7502 144.19 37.7502 144.19H37.7602Z" fill="#554DEE"/>
<path opacity="0.6" d="M37.7602 144.19C31.9402 147.11 29.3502 179.97 39.4602 185.64C49.5602 191.31 64.6602 165.67 64.6602 165.67L58.7902 159.45C58.7902 159.45 46.4902 169.75 45.0002 168.8C43.5202 167.85 45.2002 157.79 45.2002 157.79C45.2002 157.79 46.9302 154.74 43.2902 149.96C39.6502 145.17 37.7502 144.19 37.7502 144.19H37.7602Z" fill="white"/>
<path d="M64.7705 167.96L66.5305 166.9L59.9405 157.24L57.5205 158.59L64.7705 167.96Z" fill="#554DEE"/>
</svg>
