<svg width="24" height="24" viewBox="0 0 24 24" fill="none" xmlns="http://www.w3.org/2000/svg">
<path d="M14.4027 8.38223L14.2282 9.45416H15.5973L15.3691 10.7518H13.9195C13.6242 11.645 13.1633 12.2938 12.5369 12.6982C11.9195 13.1025 11.047 13.3047 9.91946 13.3047L9.79866 14.0522C9.77181 14.2214 9.75839 14.3766 9.75839 14.5176C9.75839 15.157 10.0761 15.4767 10.7114 15.4767C11.1141 15.4767 11.4228 15.3592 11.6376 15.1241C11.8613 14.8796 12.0134 14.527 12.094 14.0663H13.8389C13.66 15.016 13.2841 15.7447 12.7114 16.2525C12.1387 16.7508 11.396 17 10.4832 17C9.6689 17 9.05145 16.8025 8.63087 16.4076C8.21029 16.0127 8 15.4344 8 14.6728C8 14.3719 8.02237 14.0992 8.06711 13.8547L8.37584 11.9788C9.34228 11.9788 10.0582 11.9553 10.5235 11.9083C10.9888 11.8519 11.3468 11.7391 11.5973 11.5698C11.8479 11.4006 12.0403 11.1279 12.1745 10.7518H8.16107L8.38926 9.45416H12.4564L12.6443 8.38223H8.56376L8.79195 7H16L15.7718 8.38223H14.4027Z" fill="white"/>
<path d="M15 22H9C4 22 2 20 2 15V9C2 4 4 2 9 2H15C20 2 22 4 22 9V15C22 20 20 22 15 22Z" stroke="white" stroke-width="1.5" stroke-linecap="round" stroke-linejoin="round"/>
</svg>
