<svg width="24" height="24" viewBox="0 0 24 24" fill="none" xmlns="http://www.w3.org/2000/svg">
<path fill-rule="evenodd" clip-rule="evenodd" d="M12 14.25C12.4142 14.25 12.75 14.5858 12.75 15V18C12.75 18.4142 12.4142 18.75 12 18.75C11.5858 18.75 11.25 18.4142 11.25 18V15C11.25 14.5858 11.5858 14.25 12 14.25Z" fill="white"/>
<path fill-rule="evenodd" clip-rule="evenodd" d="M14.3983 2.24467C14.3986 2.2449 14.3989 2.24513 14.3992 2.24536L21.3297 7.78578C21.8433 8.19936 22.2282 8.80505 22.4638 9.42261C22.6995 10.0404 22.816 10.7489 22.7095 11.4008L22.7091 11.4035L21.3791 19.3635L21.3787 19.3658C21.0775 21.135 19.3962 22.5599 17.5993 22.5599H6.39932C4.59312 22.5599 2.92077 21.1456 2.61981 19.3649L1.29036 11.4081C1.29022 11.4073 1.29007 11.4065 1.28993 11.4056C1.17711 10.7518 1.29124 10.0415 1.52734 9.42261C1.7636 8.80335 2.15191 8.19722 2.67141 7.78381C2.67182 7.78348 2.67223 7.78316 2.67264 7.78283L9.60013 2.23483C10.9355 1.16433 13.0555 1.16609 14.3983 2.24467ZM13.4595 3.41453C12.6624 2.7739 11.3229 2.77609 10.5385 3.40506L3.60601 8.95707C3.34613 9.16364 3.09486 9.52203 2.92881 9.95729C2.76271 10.3926 2.71183 10.8263 2.76829 11.1518L2.76908 11.1563L4.09884 19.115C4.09887 19.1151 4.0988 19.1148 4.09884 19.115C4.27816 20.1741 5.32571 21.0599 6.39932 21.0599H17.5993C18.662 21.0599 19.7204 20.1655 19.8998 19.1152C19.8998 19.1148 19.8999 19.1145 19.9 19.1141L21.2291 11.1591C21.2292 11.1586 21.2293 11.1582 21.2293 11.1577C21.2825 10.8298 21.2289 10.3939 21.0623 9.95729C20.8956 9.52035 20.6459 9.16137 20.3898 8.95483C20.3895 8.95459 20.3892 8.95435 20.389 8.95412L13.461 3.41576L13.4595 3.41453Z" fill="white"/>
</svg>
